<?xml version="1.0" encoding="UTF-8"?>
<svg width="337px" height="247px" viewBox="0 0 337 247" version="1.1" xmlns="http://www.w3.org/2000/svg" xmlns:xlink="http://www.w3.org/1999/xlink">
    <!-- Generator: Sketch 49.1 (51147) - http://www.bohemiancoding.com/sketch -->
    <title>undraw_chat_1wo5</title>
    <desc>Created with Sketch.</desc>
    <defs>
        <linearGradient x1="49.991731%" y1="99.9874108%" x2="49.991731%" y2="-0.00209819555%" id="linearGradient-1">
            <stop stop-color="#808080" stop-opacity="0.25" offset="1%"></stop>
            <stop stop-color="#808080" stop-opacity="0.12" offset="54%"></stop>
            <stop stop-color="#808080" stop-opacity="0.1" offset="100%"></stop>
        </linearGradient>
        <linearGradient x1="50.0018293%" y1="100.008405%" x2="50.0018293%" y2="0%" id="linearGradient-2">
            <stop stop-color="#808080" stop-opacity="0.25" offset="1%"></stop>
            <stop stop-color="#808080" stop-opacity="0.12" offset="54%"></stop>
            <stop stop-color="#808080" stop-opacity="0.1" offset="100%"></stop>
        </linearGradient>
    </defs>
    <g id="desktop" stroke="none" stroke-width="1" fill="none" fill-rule="evenodd">
        <g id="Skills-Copy" transform="translate(-636.000000, -220.000000)" fill-rule="nonzero">
            <g id="undraw_chat_1wo5" transform="translate(636.000000, 220.000000)">
                <path d="M323.011112,61.5479042 L155.844097,61.5479042 C139.414144,61.5479042 126.122933,74.9913302 126.122933,91.572847 L126.122933,195.47852 C126.084183,203.226892 132.361665,209.541816 140.111642,209.580558 C140.111642,209.580558 140.111642,209.580558 140.111642,209.580558 L246.286335,209.580558 C249.812574,221.822986 258.686299,238.675696 281.006234,246.191617 L274.690002,209.580558 L323.011112,209.580558 C330.76109,209.541816 337.038571,203.226892 336.999822,195.47852 C336.999822,195.47852 336.999822,195.47852 336.999822,195.47852 L336.999822,75.6499418 C337.038571,67.9015695 330.76109,61.5866461 323.011112,61.5479042 C323.011112,61.5479042 323.011112,61.5479042 323.011112,61.5479042 Z" id="Shape" fill="url(#linearGradient-1)"></path>
                <path d="M320.442229,64.5748503 L158.033554,64.5748503 C142.098972,64.5748503 129.149701,77.5222417 129.149701,93.4545108 L129.149701,193.389765 C129.149701,200.871342 135.236633,206.957391 142.719296,206.957391 L245.848223,206.957391 C249.260007,218.703078 257.905778,234.945465 279.578361,242.155689 L273.452657,206.957391 L320.403458,206.957391 C327.886121,206.957391 333.973054,200.871342 333.973054,193.389765 L333.973054,78.1812407 C333.973054,70.6608995 327.924891,64.6136149 320.442229,64.5748503 Z" id="Shape" fill="#FAFAFA"></path>
                <rect id="Rectangle-path" fill="#E0E0E0" x="193.724551" y="90.8083832" width="84.754491" height="10.0898204"></rect>
                <rect id="Rectangle-path" fill="#E0E0E0" x="246.191617" y="109.979042" width="31.2784431" height="10.0898204"></rect>
                <rect id="Rectangle-path" fill="#E0E0E0" x="214.913174" y="130.158683" width="62.5568862" height="10.0898204"></rect>
                <rect id="Rectangle-path" fill="#E0E0E0" x="200.787425" y="148.320359" width="75.6736527" height="10.0898204"></rect>
                <rect id="Rectangle-path" fill="#E0E0E0" x="236.101796" y="168.5" width="39.3502994" height="10.0898204"></rect>
                <path d="M13.9214166,0 L195.946847,0 C203.624954,0 209.868263,6.32421205 209.868263,14.1227803 L209.868263,133.93362 C209.868263,141.732188 203.624954,148.0564 195.946847,148.0564 L90.3147054,148.0564 C86.7858784,160.278037 77.9444216,177.155535 55.763223,184.643713 L62.0453107,148.0564 L13.9601949,148.0564 C6.24330939,148.0564 0,141.732188 0,133.93362 L0,14.1227803 C0,6.32421205 6.24330939,0 13.9214166,0 Z" id="Shape" fill="url(#linearGradient-2)"></path>
                <path d="M16.5991108,4.03592814 L194.278135,4.03592814 C201.762214,4.03592814 207.850299,10.1219774 207.850299,17.6035539 L207.850299,132.850843 C207.850299,140.33242 201.762214,146.418469 194.278135,146.418469 L91.1684611,146.418469 C87.7172535,158.164156 79.1086233,174.406543 57.4319375,181.616766 L63.5588004,146.418469 L16.5991108,146.418469 C9.11503139,146.418469 3.02694611,140.33242 3.02694611,132.850843 L3.02694611,17.6035539 C3.02694611,10.1219774 9.07625378,4.03592814 16.5991108,4.03592814 C16.5603331,4.03592814 16.5991108,4.03592814 16.5991108,4.03592814 Z" id="Shape" fill="#FFFFFF"></path>
                <rect id="Rectangle-path" fill="#46FF96" x="62.5568862" y="25.2245509" width="84.754491" height="10.0898204"></rect>
                <rect id="Rectangle-path" fill="#46FF96" x="63.5658683" y="45.4041916" width="31.2784431" height="10.0898204"></rect>
                <rect id="Rectangle-path" fill="#46FF96" x="63.5658683" y="64.5748503" width="62.5568862" height="10.0898204"></rect>
                <rect id="Rectangle-path" fill="#46FF96" x="64.5748503" y="84.754491" width="75.6736527" height="10.0898204"></rect>
                <rect id="Rectangle-path" fill="#46FF96" x="64.5748503" y="102.916168" width="39.3502994" height="10.0898204"></rect>
            </g>
        </g>
    </g>
</svg>