<?xml version="1.0" encoding="UTF-8"?>
<svg width="533px" height="362px" viewBox="0 0 533 362" version="1.1" xmlns="http://www.w3.org/2000/svg" xmlns:xlink="http://www.w3.org/1999/xlink">
    <!-- Generator: Sketch 49.1 (51147) - http://www.bohemiancoding.com/sketch -->
    <title>undraw_graduation_9x4i</title>
    <desc>Created with Sketch.</desc>
    <defs>
        <linearGradient x1="50.0006002%" y1="100.011258%" x2="50.0006002%" y2="0%" id="linearGradient-1">
            <stop stop-color="#808080" stop-opacity="0.25" offset="0%"></stop>
            <stop stop-color="#808080" stop-opacity="0.12" offset="54%"></stop>
            <stop stop-color="#808080" stop-opacity="0.1" offset="100%"></stop>
        </linearGradient>
        <linearGradient x1="47.21156%" y1="63.9483487%" x2="52.7619577%" y2="36.1174123%" id="linearGradient-2">
            <stop stop-color="#808080" stop-opacity="0.25" offset="0%"></stop>
            <stop stop-color="#808080" stop-opacity="0.12" offset="54%"></stop>
            <stop stop-color="#808080" stop-opacity="0.1" offset="100%"></stop>
        </linearGradient>
    </defs>
    <g id="desktop" stroke="none" stroke-width="1" fill="none" fill-rule="evenodd">
        <g id="Landing-education" transform="translate(-440.000000, -149.000000)" fill-rule="nonzero">
            <g id="undraw_graduation_9x4i" transform="translate(440.000000, 149.000000)">
                <path d="M520.886364,128.252371 C520.886364,124.470432 518.8856,120.998489 515.571835,119.138519 L515.571835,89.5030005 L515.384263,89.5030005 L515.384263,89.3790025 L492.438003,89.3790025 L251.53353,28 L0,98.2448584 L0,110.520659 L120.420974,155.593926 L113.418301,275.623976 C177.442744,293.727681 227.899507,300.299575 267.477117,299.98958 L268.352451,299.98958 L269.540405,299.98958 C386.022375,298.439605 407.655634,237.060602 407.655634,237.060602 C401.340724,204.511131 402.216058,168.427718 403.278964,150.324012 L508.444113,103.514773 L506.943541,94.6489168 L508.506637,94.6489168 L508.506637,117.774541 C502.691917,118.766525 498.815437,124.160437 499.815819,129.926344 C500.378534,133.336288 502.56687,136.188242 505.693063,137.676218 L497.877579,156.275915 C498.69039,157.329898 499.815819,158.073886 501.066297,158.507879 L480.183324,214.306972 C482.434183,216.104943 484.81009,217.654918 487.373569,219.018896 L490.749858,221.250859 L490.812382,220.692868 C496.502054,223.172828 503.692299,224.722803 510.194782,221.684852 L511.94545,221.250859 L511.632831,220.878865 C513.07088,220.01088 514.383881,218.956897 515.571835,217.778916 L513.821166,158.073886 L512.320593,138.544203 C517.259979,137.614219 520.886364,133.274289 520.886364,128.252371 Z" id="Shape" fill="url(#linearGradient-1)"></path>
                <path d="M403.787879,234.692953 C403.787879,234.692953 365.792145,342.385906 117.098485,272.304934 L124.046634,154.326002 L315.777991,127 L400.345102,138.958999 C400.345102,138.958999 395.149639,190.202999 403.787879,234.692953 Z" id="Shape" fill="#46FF96"></path>
                <polygon id="Shape" fill="#000000" opacity="0.15" points="124.164773 154.393732 124.164773 164.636631 267.17764 214 392.954023 161.181195 394.702652 151 267.17764 196.969638"></polygon>
                <path d="M401.405423,138.959934 L316.481669,127 L313.717878,127.371811 L395.815028,138.959934 C395.815028,138.959934 390.601514,190.269908 399.269767,234.701372 C399.269767,234.701372 377.913201,295.058757 262.462121,295.988286 C382.749835,296.979783 404.797348,234.701372 404.797348,234.701372 C396.191909,190.20794 401.405423,138.959934 401.405423,138.959934 Z" id="Shape" fill="#000000" opacity="0.15"></path>
                <rect id="Rectangle-path" fill="#46FF96" x="502.715909" y="91" width="7.06628788" height="31"></rect>
                <rect id="Rectangle-path" fill="#000000" opacity="0.1" x="502.715909" y="91" width="7.06628788" height="31"></rect>
                <path d="M474.450758,213.154008 C474.450758,213.154008 495.031504,230.527681 508.772727,216.578926 L507.031758,158.168512 L496.772473,153 L474.450758,213.154008 Z" id="Shape" fill="#46FF96"></path>
                <path d="M474.450758,213.154008 C474.450758,213.154008 495.031504,230.527681 508.772727,216.578926 L507.031758,158.168512 L496.772473,153 L474.450758,213.154008 Z" id="Shape" fill="#000000" opacity="0.1"></path>
                <polygon id="Shape" fill="#46FF96" points="7.06628788 100.117361 7.06628788 112.016766 267.28486 209 501.706439 105.234721 499.957491 95 265.598374 197.100595"></polygon>
                <polygon id="Shape" fill="#000000" opacity="0.07" points="7.06628788 100.117361 7.06628788 112.016766 267.28486 209 501.706439 105.234721 499.957491 95 265.598374 197.100595"></polygon>
                <polygon id="Shape" fill="#46FF96" points="7.06628788 99.2635259 267.23737 199 500.69697 94.1313949 252.161334 31"></polygon>
                <ellipse id="Oval" fill="#46FF96" cx="256.405303" cy="91" rx="17.1609848" ry="11"></ellipse>
                <ellipse id="Oval" fill="#000000" opacity="0.1" cx="256.405303" cy="91" rx="17.1609848" ry="11"></ellipse>
                <rect id="Rectangle-path" fill="#46FF96" x="269.528409" y="91" width="240.253788" height="5"></rect>
                <rect id="Rectangle-path" fill="#000000" opacity="0.1" x="269.528409" y="91" width="240.253788" height="5"></rect>
                <ellipse id="Oval" fill="#46FF96" cx="505.239583" cy="129.5" rx="10.5994318" ry="10.5"></ellipse>
                <ellipse id="Oval" fill="#000000" opacity="0.1" cx="505.239583" cy="129.5" rx="10.5994318" ry="10.5"></ellipse>
                <path d="M492.621212,156.082039 C492.621212,156.082039 495.979327,161.299729 507.763258,157.780822 L506.053672,136 L500.985971,136 L492.621212,156.082039 Z" id="Shape" fill="#46FF96"></path>
                <path d="M492.621212,156.082039 C492.621212,156.082039 495.979327,161.299729 507.763258,157.780822 L506.053672,136 L500.985971,136 L492.621212,156.082039 Z" id="Shape" fill="#000000" opacity="0.1"></path>
                <polygon id="Shape" fill="#FFFFFF" opacity="0.2" points="479.498106 215.580311 486.564394 207 484.829941 219"></polygon>
                <polygon id="Shape" fill="#FFFFFF" opacity="0.2" points="498.67803 211 498.67803 221 505.744318 219.30303"></polygon>
                <path d="M151.420455,216 C151.420455,216 203.187037,232.918846 234.19697,222.743018 L151.420455,216 Z" id="Shape" fill="#000000" opacity="0.15"></path>
                <path d="M292.746212,227.752034 C292.746212,227.752034 347.195063,230.998222 374.513258,214 L292.746212,227.752034 Z" id="Shape" fill="#000000" opacity="0.15"></path>
                <path d="M330.096591,269 C330.096591,269 361.437594,257.093023 377.541667,245 L330.096591,269 Z" id="Shape" fill="#000000" opacity="0.15"></path>
                <path d="M138.297348,241 C138.297348,241 193.200065,262.320133 206.941288,254.12465 L138.297348,241 Z" id="Shape" fill="#000000" opacity="0.15"></path>
                <ellipse id="Oval" fill="#E0E0E0" transform="translate(21.198864, 223.000000) rotate(-68.679484) translate(-21.198864, -223.000000) " cx="21.1988636" cy="223" rx="22.2083333" ry="3"></ellipse>
                <ellipse id="Oval" fill="#E0E0E0" transform="translate(306.878788, 334.000000) rotate(-68.679484) translate(-306.878788, -334.000000) " cx="306.878788" cy="334" rx="22.2083333" ry="2"></ellipse>
                <rect id="Rectangle-path" fill="#1E1E1E" transform="translate(139.306818, 307.500000) rotate(-55.520101) translate(-139.306818, -307.500000) " x="117.098485" y="301" width="44.4166667" height="13"></rect>
                <rect id="Rectangle-path" fill="#000000" opacity="0.05" transform="translate(147.382576, 311.000000) rotate(-81.842348) translate(-147.382576, -311.000000) " x="125.174242" y="304" width="44.4166667" height="14"></rect>
                <rect id="Rectangle-path" fill="#1E1E1E" transform="translate(147.382576, 311.500000) rotate(-81.951741) translate(-147.382576, -311.500000) " x="125.174242" y="305" width="44.4166667" height="13"></rect>
                <polygon id="Shape" fill="url(#linearGradient-2)" points="13.1231061 244.60681 29.8776267 202 314.954545 312.39319 298.200025 355"></polygon>
                <path d="M298.975317,354 C293.398253,351.952753 9.09331895,241.959737 13.1664555,243.57272 C26.2631563,219.377979 29.1456837,203 29.1456837,203 L314.954545,313.42728 C314.954545,313.42728 306.870936,330.983977 298.975317,354 Z" id="Shape" fill="#F5F5F5"></path>
                <rect id="Rectangle-path" fill="#000000" opacity="0.05" transform="translate(158.991477, 274.500000) rotate(-68.839085) translate(-158.991477, -274.500000) " x="137.287879" y="262" width="43.407197" height="25"></rect>
                <rect id="Rectangle-path" fill="#1E1E1E" transform="translate(157.477273, 276.500000) rotate(-68.679484) translate(-157.477273, -276.500000) " x="135.268939" y="265" width="44.4166667" height="23"></rect>
                <rect id="Rectangle-path" fill="#000000" opacity="0.05" transform="translate(157.477273, 275.500000) rotate(-68.679484) translate(-157.477273, -275.500000) " x="135.268939" y="268" width="44.4166667" height="15"></rect>
                <rect id="Rectangle-path" fill="#1E1E1E" transform="translate(157.477273, 276.500000) rotate(-68.679484) translate(-157.477273, -276.500000) " x="135.268939" y="270" width="44.4166667" height="13"></rect>
                <ellipse id="Oval" fill="#DBDBDB" cx="198.86553" cy="350" rx="2.01893939" ry="2"></ellipse>
                <g id="Group" opacity="0.5" transform="translate(48.454545, 299.000000)" fill="#47E6B1">
                    <rect id="Rectangle-path" x="4.68842593" y="0" width="1.85069444" height="11"></rect>
                    <rect id="Rectangle-path" x="0.308449074" y="4.52941176" width="10.4872685" height="1.94117647"></rect>
                </g>
                <g id="Group" opacity="0.5" transform="translate(521.895833, 167.000000)" fill="#47E6B1">
                    <rect id="Rectangle-path" x="4.62673611" y="0" width="1.85069444" height="11"></rect>
                    <rect id="Rectangle-path" x="0.370138889" y="4.52941176" width="10.4872685" height="1.94117647"></rect>
                </g>
                <g id="Group" opacity="0.5" transform="translate(59.558712, 37.000000)" fill="#47E6B1">
                    <rect id="Rectangle-path" x="4.68842593" y="0" width="1.85069444" height="11"></rect>
                    <rect id="Rectangle-path" x="0.308449074" y="4.52941176" width="10.4872685" height="1.94117647"></rect>
                </g>
                <g id="Group" opacity="0.5" transform="translate(465.365530, 21.000000)" fill="#47E6B1">
                    <rect id="Rectangle-path" x="4.62673611" y="0" width="1.85069444" height="11"></rect>
                    <rect id="Rectangle-path" x="0.308449074" y="4.52941176" width="10.4872685" height="1.94117647"></rect>
                </g>
                <path d="M42.7392772,157.084406 C41.7070375,156.603888 41.1605576,155.462657 41.5248775,154.441555 C41.5248775,154.38149 41.5855975,154.261361 41.5855975,154.201296 C41.6463175,153.600648 41.1605576,153.060065 40.5533578,153 C40.1890379,153 39.824718,153.12013 39.5818381,153.420454 C39.5211181,153.480518 39.5211181,153.540583 39.4603982,153.660713 C38.9746383,154.681814 37.8209586,155.222397 36.788719,154.862009 C36.727999,154.862009 36.606559,154.801944 36.545839,154.801944 C35.9386392,154.741879 35.3921594,155.222397 35.3314394,155.823045 C35.3314394,156.183434 35.4528794,156.543823 35.7564793,156.784082 C35.8171992,156.844147 35.8779192,156.844147 35.9993592,156.904212 C37.0315989,157.38473 37.5780787,158.525961 37.2137588,159.547063 C37.2137588,159.607127 37.1530388,159.727257 37.1530388,159.787322 C37.0923189,160.38797 37.5173587,160.928553 38.1245586,160.988618 C38.5495984,161.048682 38.9139183,160.868488 39.1567982,160.508099 C39.2175182,160.448035 39.2175182,160.38797 39.2782382,160.26784 C39.7639981,159.246739 40.9176777,158.706155 41.9499174,159.066544 C42.0106374,159.066544 42.1320774,159.126609 42.1927973,159.126609 C42.7999972,159.186674 43.346477,158.706155 43.407197,158.105508 C43.407197,157.745119 43.285757,157.38473 42.9821571,157.144471 C42.9214371,157.144471 42.8607171,157.084406 42.7392772,157.084406 Z" id="Shape" fill="#4D8AF0" opacity="0.5"></path>
                <path d="M149.743065,34.084406 C148.710825,33.6038877 148.164346,32.4626566 148.528665,31.4415551 C148.528665,31.3814903 148.589385,31.2613607 148.589385,31.2012959 C148.650105,30.6006479 148.164346,30.0600648 147.557146,30 C147.192826,30 146.828506,30.1201296 146.585626,30.4204536 C146.524906,30.4805184 146.524906,30.5405832 146.464186,30.6607127 C145.978426,31.6818143 144.824747,32.2223974 143.792507,31.8620086 C143.731787,31.8620086 143.610347,31.8019438 143.549627,31.8019438 C142.942427,31.741879 142.395947,32.2223974 142.335227,32.8230454 C142.335227,33.1834341 142.456667,33.5438229 142.760267,33.7840821 C142.820987,33.8441469 142.881707,33.8441469 143.003147,33.9042117 C144.035387,34.38473 144.581867,35.5259611 144.217547,36.5470626 C144.217547,36.6071274 144.156827,36.727257 144.156827,36.7873218 C144.096107,37.3879698 144.521147,37.9285529 145.128346,37.9886177 C145.553386,38.0486825 145.917706,37.8684881 146.160586,37.5080993 C146.221306,37.4480345 146.221306,37.3879698 146.282026,37.2678402 C146.767786,36.2467387 147.921466,35.7061555 148.953705,36.0665443 C149.014425,36.0665443 149.135865,36.1266091 149.196585,36.1266091 C149.803785,36.1866739 150.350265,35.7061555 150.410985,35.1055076 C150.410985,34.7451188 150.289545,34.38473 149.985945,34.1444708 C149.925225,34.1444708 149.864505,34.084406 149.743065,34.084406 Z" id="Shape" fill="#4D8AF0" opacity="0.5"></path>
                <path d="M178.008217,358.084406 C176.975977,357.603888 176.429497,356.462657 176.793817,355.441555 C176.793817,355.38149 176.854537,355.261361 176.854537,355.201296 C176.915257,354.600648 176.429497,354.060065 175.822297,354 C175.457977,354 175.093657,354.12013 174.850778,354.420454 C174.790058,354.480518 174.790058,354.540583 174.729338,354.660713 C174.243578,355.681814 173.089898,356.222397 172.057658,355.862009 C171.996938,355.862009 171.875498,355.801944 171.814778,355.801944 C171.207579,355.741879 170.661099,356.222397 170.600379,356.823045 C170.600379,357.183434 170.721819,357.543823 171.025419,357.784082 C171.086139,357.844147 171.146859,357.844147 171.268299,357.904212 C172.300538,358.38473 172.847018,359.525961 172.482698,360.547063 C172.482698,360.607127 172.421978,360.727257 172.421978,360.787322 C172.361258,361.38797 172.786298,361.928553 173.393498,361.988618 C173.818538,362.048682 174.182858,361.868488 174.425738,361.508099 C174.486458,361.448035 174.486458,361.38797 174.547178,361.26784 C175.032937,360.246739 176.186617,359.706155 177.218857,360.066544 C177.279577,360.066544 177.401017,360.126609 177.461737,360.126609 C178.068937,360.186674 178.615416,359.706155 178.676136,359.105508 C178.676136,358.745119 178.554696,358.38473 178.251096,358.144471 C178.129657,358.144471 178.068937,358.084406 178.008217,358.084406 Z" id="Shape" fill="#4D8AF0" opacity="0.5"></path>
                <ellipse id="Oval" fill="#F55F44" opacity="0.5" cx="510.286932" cy="274.5" rx="3.53314394" ry="3.5"></ellipse>
                <ellipse id="Oval" fill="#4D8AF0" opacity="0.5" cx="344.733902" cy="355.5" rx="3.53314394" ry="3.5"></ellipse>
                <ellipse id="Oval" fill="#47E6B1" opacity="0.5" cx="408.330492" cy="286.5" rx="3.53314394" ry="3.5"></ellipse>
                <ellipse id="Oval" fill="#F55F44" opacity="0.5" cx="292.241477" cy="3.5" rx="3.53314394" ry="3.5"></ellipse>
            </g>
        </g>
    </g>
</svg>