<?xml version="1.0" encoding="UTF-8"?>
<svg width="451px" height="342px" viewBox="0 0 451 342" version="1.1" xmlns="http://www.w3.org/2000/svg" xmlns:xlink="http://www.w3.org/1999/xlink">
    <!-- Generator: Sketch 49.1 (51147) - http://www.bohemiancoding.com/sketch -->
    <title>undraw_on_the_office_fbfs</title>
    <desc>Created with Sketch.</desc>
    <defs>
        <linearGradient x1="50.0058021%" y1="100.000854%" x2="50.0058021%" y2="0.00343695406%" id="linearGradient-1">
            <stop stop-color="#808080" stop-opacity="0.25" offset="0%"></stop>
            <stop stop-color="#808080" stop-opacity="0.12" offset="54%"></stop>
            <stop stop-color="#808080" stop-opacity="0.1" offset="100%"></stop>
        </linearGradient>
    </defs>
    <g id="desktop" stroke="none" stroke-width="1" fill="none" fill-rule="evenodd">
        <g id="Landing" transform="translate(-522.000000, -126.000000)">
            <g id="undraw_on_the_office_fbfs" transform="translate(522.000000, 126.000000)">
                <rect id="Rectangle-path" fill="#6C63FF" fill-rule="nonzero" opacity="0.1" x="179.938619" y="72.6675192" width="14.9948849" height="3.46035806"></rect>
                <rect id="Rectangle-path" fill="#6C63FF" fill-rule="nonzero" opacity="0.1" x="179.938619" y="78.4347826" width="14.9948849" height="11.5345269"></rect>
                <rect id="Rectangle-path" fill="#6C63FF" fill-rule="nonzero" opacity="0.1" x="179.938619" y="107.2711" width="14.9948849" height="16.1483376"></rect>
                <rect id="Rectangle-path" fill="#6C63FF" fill-rule="nonzero" opacity="0.1" x="179.938619" y="141.87468" width="14.9948849" height="16.1483376"></rect>
                <rect id="Rectangle-path" fill="#6C63FF" fill-rule="nonzero" opacity="0.1" x="252.606138" y="152.255754" width="62.286445" height="8.0741688"></rect>
                <path d="M252.606138,175.372869 L252.606138,183.398977 L300.982262,183.398977 C303.09928,181.86104 305.171256,180.323103 307.198188,178.689045 C308.594519,177.583653 310.035894,176.4302 311.432225,175.324808 L252.606138,175.372869 Z" id="Shape" fill="#6C63FF" fill-rule="nonzero" opacity="0.1"></path>
                <rect id="Rectangle-path" fill="#6C63FF" fill-rule="nonzero" opacity="0.1" x="132.647059" y="83.0485934" width="12.6879795" height="10.3810742"></rect>
                <rect id="Rectangle-path" fill="#6C63FF" fill-rule="nonzero" opacity="0.1" x="132.647059" y="109.578005" width="12.6879795" height="10.3810742"></rect>
                <rect id="Rectangle-path" fill="#6C63FF" fill-rule="nonzero" opacity="0.1" x="132.647059" y="136.107417" width="12.6879795" height="10.3810742"></rect>
                <rect id="Rectangle-path" fill="#6C63FF" fill-rule="nonzero" opacity="0.1" x="85.3554987" y="136.107417" width="12.6879795" height="10.3810742"></rect>
                <rect id="Rectangle-path" fill="#6C63FF" fill-rule="nonzero" opacity="0.1" x="132.647059" y="163.790281" width="12.6879795" height="10.3810742"></rect>
                <rect id="Rectangle-path" fill="#6C63FF" fill-rule="nonzero" opacity="0.1" x="85.3554987" y="163.790281" width="12.6879795" height="10.3810742"></rect>
                <rect id="Rectangle-path" fill="#6C63FF" fill-rule="nonzero" opacity="0.1" x="132.647059" y="190.319693" width="12.6879795" height="10.3810742"></rect>
                <rect id="Rectangle-path" fill="#6C63FF" fill-rule="nonzero" opacity="0.1" x="85.3554987" y="190.319693" width="12.6879795" height="10.3810742"></rect>
                <polygon id="Shape" fill="#6C63FF" fill-rule="nonzero" opacity="0.1" points="145.335038 223.769821 145.335038 216.849105 132.647059 216.849105 132.647059 222.787526"></polygon>
                <ellipse id="Oval" fill="#6C63FF" fill-rule="nonzero" opacity="0.1" cx="427.930946" cy="337.38491" rx="16.1483376" ry="1.73017903"></ellipse>
                <polygon id="Shape" fill="#D48A9B" fill-rule="nonzero" points="317.199488 203.007673 308.674478 202.555667 308.112389 179.051348 307.971867 173.446472 316.918444 171.86445 317.012126 179.051348"></polygon>
                <polygon id="Shape" fill="#D48A9B" fill-rule="nonzero" points="310.857692 198.596013 268.495168 224.759174 267.585125 232.712052 272.180844 232.937986 272.180844 227.244449 299.891668 211.790561 266.44757 252.955741 266.44757 259.327081 271.953333 259.327081 271.498312 252.277939 310.175159 208.582298 314.998389 209.034166 355.768337 254.989148 356.67838 262.761278 362.184143 262.987212 361.2741 254.989148 328.967557 214.953637 350.490085 229.77491 350.990609 236.101063 355.313315 236.372183 354.858293 228.600053 313.860835 197.240409"></polygon>
                <path d="M257.345669,153.451827 C261.310863,148.558373 264.64523,143.12619 267.213594,137.379749 C270.097371,131.00479 273.251502,123.642162 273.521856,121.487247 C273.972446,117.401886 285.552613,109.276059 298.259255,108.827118 C306.550114,108.51286 319.436992,102.093007 327.457497,97.6484938 C334.982353,93.3835569 343.31827,90.8245947 351.924542,90.1062895 C361.251758,89.3879843 370.038266,91.2286413 365.622483,102.048113 L306.234701,173.743948 C306.234701,173.743948 255.588368,182.632975 252.434237,168.35666 C252.254001,167.638354 252.028706,166.920049 251.713293,166.246638 C251.127525,164.899816 250.992348,161.353184 257.345669,153.451827 Z" id="Shape" fill="#46FF96" fill-rule="nonzero"></path>
                <path d="M262.611421,154.583848 C266.635086,149.580928 269.980606,144.127295 272.647979,138.313091 C275.360562,132.318602 278.208775,125.648042 278.434823,123.619832 C278.88692,119.698625 289.963302,111.901281 302.169926,111.495639 C310.126837,111.225211 322.5143,105.050436 330.154743,100.768658 C337.388298,96.7122369 345.390419,94.2333127 353.663797,93.5572425 C362.615322,92.8811723 371.06954,94.6389549 366.819826,105.005365 L319.575668,174.009599 C319.575668,174.009599 261.25513,182.257656 258.180869,168.601037 C258.00003,167.879896 257.773981,167.158754 257.457513,166.482684 C256.914997,165.130544 256.824577,161.840335 262.611421,154.583848 Z" id="Shape" fill="#00BA42" fill-rule="nonzero" opacity="0.2"></path>
                <path d="M317.199488,177.631714 C314.282986,177.631714 311.270861,177.631714 308.115302,177.588459 L307.971867,172.224904 L317.103865,170.710997 L317.199488,177.631714 Z" id="Shape" fill="#000000" fill-rule="nonzero" opacity="0.1"></path>
                <g id="Group" opacity="0.1" transform="translate(266.447570, 206.468031)" fill="#000000" fill-rule="nonzero">
                    <polygon id="Shape" points="83.8942764 21.468173 62.4329499 6.56351786 64.8830802 9.66295685 83.8942764 22.8811525 84.393377 29.2623505 88.7037915 29.5358304 88.6130459 28.1228508 84.393377 27.8949509"></polygon>
                    <polygon id="Shape" points="5.80771627 18.9612738 5.80771627 20.3286734 31.3979661 5.87981808 33.4397413 3.3729189"></polygon>
                    <polygon id="Shape" points="0.0907455667 51.3230633 0.0907455667 52.6904628 5.58085235 52.6904628 5.49010679 51.3230633"></polygon>
                    <polygon id="Shape" points="5.80771627 24.704352 1.3611835 24.476452 1.22506515 25.8438516 5.80771627 26.0717515"></polygon>
                    <polygon id="Shape" points="90.064975 54.7415622 89.1575193 46.9473847 48.5035054 0.592539807 43.6939904 0.136739955 5.12712452 44.2125856 5.1724973 45.4888252 43.6939904 1.50413951 48.5035054 1.95993936 89.1575193 48.3147843 90.064975 56.1545417 95.5550818 56.3824416 95.4189634 54.9694621"></polygon>
                </g>
                <path d="M312.585678,133.800512 C312.585678,133.800512 322.856441,141.780144 318.373862,141.872931 C313.847763,142.01211 312.585678,133.800512 312.585678,133.800512 Z" id="Shape" fill="#000000" fill-rule="nonzero" opacity="0.1"></path>
                <path d="M267.601023,175.633348 C267.601023,175.633348 285.212288,174.286253 291.805224,161.623558 C291.805224,161.623558 305.216879,135.175589 316.144895,132.211979 C327.072911,129.293273 347.303288,122.73741 355.702507,112.54439 C364.101726,102.351369 367.623979,94.5831202 367.623979,94.5831202 C367.623979,94.5831202 369.791519,102.800401 362.972798,112.499486 C356.154078,122.198572 353.670438,137.151329 348.883786,153.002149 C344.097134,168.852969 342.290851,175.139413 333.665847,176.08238 C327.163226,176.755927 292.708365,176.441605 276.271184,176.08238 C270.852334,175.94767 267.601023,175.633348 267.601023,175.633348 Z" id="Shape" fill="#46FF96" fill-rule="nonzero"></path>
                <path d="M267.601023,175.633348 C267.601023,175.633348 285.212288,174.286253 291.805224,161.623558 C291.805224,161.623558 305.216879,135.175589 316.144895,132.211979 C327.072911,129.293273 347.303288,122.73741 355.702507,112.54439 C364.101726,102.351369 367.623979,94.5831202 367.623979,94.5831202 C367.623979,94.5831202 369.791519,102.800401 362.972798,112.499486 C356.154078,122.198572 353.670438,137.151329 348.883786,153.002149 C344.097134,168.852969 342.290851,175.139413 333.665847,176.08238 C327.163226,176.755927 292.708365,176.441605 276.271184,176.08238 C270.852334,175.94767 267.601023,175.633348 267.601023,175.633348 Z" id="Shape" fill="#B0FFB0" fill-rule="nonzero" opacity="0.2"></path>
                <path d="M272.214834,175.644449 C272.214834,175.644449 289.027871,174.337882 295.293319,162.038135 C295.293319,162.038135 308.094666,136.357345 318.50703,133.473888 C328.919393,130.635485 348.211564,124.237814 356.234944,114.370984 C364.258324,104.504155 367.638961,96.8900256 367.638961,96.8900256 C367.638961,96.8900256 369.712419,104.909641 363.17652,114.370984 C356.685696,123.787274 354.296712,138.294668 349.74412,153.703142 C345.191528,169.066562 343.478672,175.238963 335.229917,176.094989 C329.009544,176.770799 296.149747,176.410367 280.463589,176.094989 C275.279945,175.959827 272.214834,175.644449 272.214834,175.644449 Z" id="Shape" fill="#00BA42" fill-rule="nonzero"></path>
                <path d="M258.373402,169.737177 C258.373402,169.737177 267.486156,173.198803 272.667919,171.290471 C277.849681,169.382139 290.670077,163.790281 290.670077,163.790281 C290.670077,163.790281 269.049619,165.166056 258.373402,169.737177 Z" id="Shape" fill="#000000" fill-rule="nonzero" opacity="0.1"></path>
                <path d="M320.659847,335.654731 C320.659847,335.654731 294.080263,334.25179 287.594118,330.450269 C281.107974,326.648749 271.945729,326.648749 271.900371,326.648749 L166.035612,303.613348 L122.03869,293.159167 L114.191816,292.118275 L140.136393,262.520725 L140.907473,262.158676 L179.143973,245.685422 C179.143973,245.685422 196.289165,246.635802 199.645632,257.768825 C199.87242,258.53818 200.053851,259.352792 200.099208,260.167403 C200.462069,263.65213 199.509559,267.136857 197.377749,269.897485 C196.01702,271.752989 194.384144,274.332591 193.839852,276.640657 C193.522349,277.953087 193.613064,279.129748 194.293429,280.080128 C195.699516,281.48307 197.287034,282.750243 199.010625,283.836392 C208.308943,289.991234 231.894922,300.173877 273.034312,284.605747 C273.034312,284.605747 290.633081,267.272626 303.968231,274.649385 C317.30338,282.026144 320.659847,335.654731 320.659847,335.654731 Z" id="Shape" fill="#E1DEE5" fill-rule="nonzero"></path>
                <path d="M193.294941,276.434696 C192.979308,277.738393 193.069489,278.907225 193.745845,279.851282 C195.143647,281.24489 196.72181,282.503632 198.435245,283.582554 L118.805627,289.516624 L140.629372,262.049071 L178.640566,245.685422 C178.640566,245.685422 195.684731,246.629479 199.02142,257.688428 C199.246871,258.452664 199.427233,259.261856 199.472323,260.071047 C199.833046,263.532588 198.886148,266.994129 196.7669,269.736389 C195.459279,271.579548 193.836025,274.186942 193.294941,276.434696 Z" id="Shape" fill="#000000" fill-rule="nonzero" opacity="0.1"></path>
                <polygon id="Shape" fill="#A36468" fill-rule="nonzero" points="115.459599 167.250639 181.092072 168.701868 181.092072 247.2496 118.813745 289.516624 103.810742 275.729955 106.938256 230.061614 103.810742 187.477134"></polygon>
                <path d="M78.4347826,154.400461 L154.760354,130.836973 C156.115245,130.429927 157.560463,130.249017 159.005681,130.384699 L341.328954,143.726789 C356.910209,144.812248 371.949508,150.103856 384.730654,159.058886 C396.518213,167.380732 408.215445,180.180093 413.635012,199.537431 C417.564199,213.829297 417.29322,228.935256 412.86724,243.09144 L396.744028,295.283887 C396.744028,295.283887 408.802565,181.898735 288.262358,176.20008 L78.4347826,154.400461 Z" id="Shape" fill="#D9D6DF" fill-rule="nonzero"></path>
                <path d="M118.805627,166.047993 L118.805627,291.823529 C118.805627,291.823529 97.9443534,288.885905 94.2497003,284.77323 C91.1858416,281.428857 73.5686541,271.983263 65.9090074,262.22131 C64.2419078,260.097181 63.0253756,257.973053 62.5748082,255.848924 C60.0065737,244.143619 49.5984655,216.484751 49.5984655,216.484751 L52.4370404,189.458603 L64.2419078,171.923243 L87.1757912,161.483376 L104.883092,161.483376 L118.805627,166.047993 Z" id="Shape" fill="#B8797D" fill-rule="nonzero"></path>
                <path d="M85.6813415,167.250639 C85.6813415,167.250639 51.6996157,188.492837 59.1458106,222.651372 C59.7324805,225.441661 60.2740219,228.231949 60.6350496,231.067243 C61.9889032,242.138388 70.1571533,273.866671 118.805627,288.538189 L118.805627,291.823529 L98.1367947,286.062933 L84.1018456,278.367137 L73.406402,268.781145 L60.3191504,252.849497 L54.2268091,239.888155 L52.0155149,222.786386 L50.7519182,203.254365 L53.8657815,186.512632 L61.2668479,175.621506 L70.2474102,168.645784 L85.6813415,167.250639 Z" id="Shape" fill="#D9D6DF" fill-rule="nonzero"></path>
                <path d="M118.805627,165.985412 L118.805627,185.929432 C104.027014,187.550165 58.2043039,196.779339 66.3595748,249.678262 L65.9090074,261.83376 C64.2419078,259.717803 63.0253756,257.601846 62.5748082,255.485889 C60.0065737,243.825615 49.5984655,216.273155 49.5984655,216.273155 L52.4370404,189.350979 L64.2419078,171.883079 L87.1757912,161.483376 L104.883092,161.483376 L118.805627,165.985412 Z" id="Shape" fill="#000000" fill-rule="nonzero" opacity="0.1"></path>
                <path d="M196.758917,269.080872 C195.38002,270.895417 193.725344,273.418076 193.173785,275.675192 C191.059477,273.373819 190.599844,270.674131 193.633418,268.594043 C197.448366,265.938613 198.689373,261.291609 199.011116,257.219949 C199.240932,257.972321 199.424785,258.76895 199.470748,259.565579 C199.838454,262.929125 198.873226,266.336927 196.758917,269.080872 Z" id="Shape" fill="#FFFFFF" fill-rule="nonzero" opacity="0.1"></path>
                <path d="M388.713555,282.176471 L379.697052,312.785864 L359.364837,332.754418 L333.848132,337.961637 L294.130435,330.852651 L294.130435,189.080446 C294.130435,189.080446 300.982977,184.55243 301.704298,184.55243 C302.425618,184.55243 321.585688,187.631481 321.585688,187.631481 L364.955069,218.874797 L366.758369,220.187921 L386.143852,249.167229 L388.713555,282.176471 Z" id="Shape" fill="#B8797D" fill-rule="nonzero"></path>
                <polygon id="Shape" fill="#A36468" fill-rule="nonzero" points="294.130435 183.398977 294.130435 330.365111 297.590793 331.040921 297.590793 183.398977"></polygon>
                <path d="M365.644501,228.383632 C337.335912,205.165669 305.831918,201.752584 294.130435,201.303494 L294.130435,189.043332 C294.130435,189.043332 300.971302,184.55243 301.691393,184.55243 C302.411485,184.55243 321.53891,187.606243 321.53891,187.606243 L364.834399,218.593466 L365.644501,228.383632 Z" id="Shape" fill="#000000" fill-rule="nonzero" opacity="0.1"></path>
                <path d="M288.362058,173.978793 L109.756703,154.517841 L89.6851222,153.476906 C76.9987956,152.752778 64.7202438,157.866935 56.3382066,167.416379 C45.8719872,179.409756 37.9883414,200.590513 49.5419602,236.977967 C49.5419602,236.977967 61.5939705,284.136831 119.860456,294.274629 L289.222916,332.608179 C292.983506,333.468081 296.698787,334.509016 300.323452,335.685724 C315.682968,340.709365 367.787524,353.788935 392.344628,309.345552 C400.771973,294.093597 403.26393,276.352451 400.04704,259.244916 C394.15696,227.971619 371.865272,174.883953 288.362058,173.978793 Z M375.852403,307.308941 C352.926399,344.601556 305.760449,333.468081 291.578948,329.12331 C288.090208,328.037118 284.601468,327.131957 281.022112,326.362571 L124.57252,292.916889 C70.6556323,284.091573 59.5097883,242.906768 59.5097883,242.906768 C50.4028181,215.842468 54.3899493,198.372869 61.7298954,187.329911 C69.432308,175.743856 82.8435675,169.271958 96.7532184,169.996086 L115.239009,170.946505 L274.996107,192.263036 C278.212997,192.715616 281.475195,192.987164 284.737393,193.07768 C355.780822,195.476356 377.891277,234.488775 383.509507,261.372044 C386.817014,277.121837 384.279749,293.595759 375.852403,307.308941 Z" id="Shape" fill="#E1DEE5" fill-rule="nonzero"></path>
                <path d="M1.98549654,252.444607 C7.83149076,256.320714 16.7137765,254.472803 16.7137765,254.472803 C16.7137765,254.472803 30.1278408,248.16286 34.0704881,248.16286 C38.0131353,248.16286 47.6658235,244.241681 47.6658235,244.241681 L47.348599,241.627562 L46.3516077,233.695062 C52.4695086,238.427519 59.2218585,236.804963 62.5753746,236.444394 C66.1554796,236.083826 85.3249025,224.771 87.1376139,224.004793 C87.6361095,223.824509 88.2252407,223.148443 88.8143719,222.337165 C90.0379521,220.444182 91.1255789,218.506128 92.0772524,216.432861 C93.2555148,215.396228 94.1618705,214.539878 94.0712349,214.359594 C93.9805994,214.17931 94.5244128,212.782109 95.2494973,211.249694 C97.9685644,210.798984 100.325089,209.76235 101.050174,209.176427 C102.273754,208.184864 102.998839,206.65245 102.953521,205.074964 C102.953521,205.074964 121.624448,186.325419 119.177288,178.528133 C116.730127,170.730846 125.204553,170.550562 125.204553,170.550562 C125.204553,170.550562 138.210757,164.961756 140.023469,161.6265 C141.156413,159.553233 150.899737,155.046131 158.241218,151.89116 L159.147574,151.485521 C162.002594,157.705321 176.504285,152.882722 179.359306,150.268603 C182.395597,147.4742 191.232565,146.16714 191.232565,146.16714 C191.232565,146.16714 191.595108,109.749755 194.450128,105.152511 C195.809661,102.944031 196.126886,95.7777391 196.081568,88.8368019 C196.081568,88.6114468 196.081568,88.3860917 196.081568,88.1156656 C200.024215,87.3494582 209.495632,85.5466174 213.84614,85.1409782 C216.610525,84.8705521 219.510863,83.1578533 221.731434,81.4902255 L222.003341,81.8057227 C222.773743,82.1212198 223.589463,82.2564329 224.405184,82.2113619 C225.130268,82.3015039 225.855353,82.1662908 226.535119,81.8057227 C228.257195,80.8592313 234.465732,79.0113194 236.731621,78.109899 C238.99751,77.1634076 236.369079,70.4928965 234.647003,69.1858369 C232.970245,67.8787773 231.791982,66.2111496 232.743656,65.4900132 C233.695329,64.7688769 230.477767,62.875894 228.57442,62.5153259 C226.671073,62.1547577 221.00635,59.5406385 221.00635,59.5406385 C221.00635,59.5406385 218.921732,55.3039626 215.522898,55.3039626 C212.124064,55.3039626 207.592285,51.9687071 207.592285,51.9687071 C207.411014,50.4813634 203.830909,50.3010793 203.830909,50.3010793 C203.830909,50.3010793 190.235574,39.8896735 187.969685,41.1967331 C185.703795,42.5037927 179.495259,39.1685372 179.495259,39.1685372 C179.495259,39.1685372 171.836553,40.0248866 170.06916,38.627685 C170.06916,38.1769747 169.887889,37.7262645 169.615982,37.3656964 C169.208122,36.1037078 167.259457,34.391009 165.35611,32.9487364 C165.492064,32.0473159 165.582699,31.1458955 165.582699,30.2444751 C165.582699,29.8388359 165.582699,29.4782678 165.537381,29.0726286 C165.537381,29.0275576 165.537381,28.9374155 165.537381,28.8923445 L165.809288,26.2782253 C165.809288,25.4218759 166.035877,24.5655265 166.443737,23.7993192 C166.760962,23.348609 167.214139,22.9429698 167.576682,22.4471886 C167.667317,22.3570465 167.757953,22.2218335 167.803271,22.0866204 L167.848588,21.9964784 C167.893906,21.9063363 167.939224,21.8161943 167.984542,21.7260522 L168.029859,21.6359102 C168.120495,21.3654841 168.211131,21.0950579 168.256448,20.8246318 L168.256448,20.7795608 C168.301766,20.6443477 168.301766,20.5542057 168.301766,20.4189926 C168.301766,20.4189926 168.301766,20.3739216 168.301766,20.3739216 C168.392402,19.2922171 168.256448,18.2105126 167.893906,17.1738792 C167.350093,15.4161093 166.443737,13.7484816 166.353101,11.9005697 C166.307784,10.9991493 166.443737,10.0526579 166.262466,9.19630851 C165.809288,7.16811258 163.72467,5.906124 161.68537,5.04977461 C158.875667,3.87792808 157.470816,2.6159395 155.250244,0.903240719 C153.346897,-0.584102961 150.21997,0.182104389 147.818128,0.317317451 C142.334676,0.677885616 136.941859,2.30044236 131.775632,4.01314114 C129.781649,4.68920645 127.742349,5.41034278 126.156226,6.7624734 C125.113917,7.66389381 124.388833,8.88081136 124.116926,10.187871 C124.071608,10.5033681 124.026291,10.8188652 124.071608,11.1343624 C124.071608,11.1794334 124.071608,11.1794334 124.071608,11.2245044 C124.071608,11.3597175 124.071608,11.4498595 124.116926,11.5850726 C124.116926,11.6301436 124.116926,11.6752146 124.116926,11.7202857 C124.162244,11.8554987 124.162244,11.9907118 124.207562,12.1259248 C124.434151,12.8019902 124.842011,13.4329844 125.0686,14.1090498 C125.113917,14.2442628 125.159235,14.4245469 125.204553,14.55976 C125.204553,14.55976 125.204553,14.604831 125.204553,14.604831 C125.249871,14.740044 125.249871,14.9203281 125.295189,15.0555412 C125.521777,16.7231689 124.887329,18.5260098 124.615422,20.2387086 C124.570104,20.4640637 124.570104,20.6894188 124.524786,20.9598449 C124.434151,21.9514073 124.524786,22.9429698 124.796693,23.9345322 C124.796693,23.9345322 124.796693,23.9345322 124.796693,23.9796033 C124.842011,24.1148163 124.887329,24.2049584 124.887329,24.3401714 C124.887329,24.3852424 124.932646,24.4303135 124.932646,24.4753845 C124.977964,24.5655265 125.023282,24.6556686 125.0686,24.7908816 L125.159235,24.9711657 C125.204553,25.0613078 125.249871,25.1514498 125.295189,25.2415918 C125.340506,25.3317339 125.385824,25.3768049 125.385824,25.4669469 C125.431142,25.557089 125.47646,25.60216 125.521777,25.692302 C125.567095,25.7824441 125.612413,25.8275151 125.657731,25.9176571 C125.703049,26.0077992 125.748366,26.0528702 125.793684,26.1430123 C125.839002,26.1880833 125.88432,26.2782253 125.974955,26.3683674 L126.110909,26.5486514 L126.29218,26.7740065 L126.428133,26.9092196 L126.654722,27.0895037 C126.70004,27.1345747 126.745358,27.1796457 126.835993,27.2247167 C126.926629,27.2697878 127.017264,27.3599298 127.153218,27.4050008 L127.289171,27.4951429 C127.425124,27.5852849 127.606396,27.675427 127.742349,27.720498 C128.829976,28.1712082 130.189509,28.3965633 130.823958,29.3430547 C130.959912,29.5684098 131.095865,29.7937649 131.141183,30.064191 C131.141183,30.1092621 131.141183,30.1994041 131.141183,30.2444751 L131.141183,30.4247592 C131.141183,30.9656115 131.186501,31.5064637 131.231818,32.0473159 C131.231818,32.3628131 131.231818,32.6332392 131.277136,32.9487364 C131.322454,33.1740915 131.367772,33.3994466 131.458407,33.5797306 C132.22881,37.3206254 134.222792,40.7009519 137.168448,43.134787 C137.213766,43.4052131 137.304401,43.7657813 137.349719,44.1263495 C135.672961,45.343267 133.814932,46.3348295 131.866267,46.9658238 C127.334489,48.2728834 120.944681,54.3574711 120.944681,54.3574711 C120.944681,54.3574711 117.772436,77.1634076 117.002034,79.9578108 C116.231632,82.7522141 115.687818,93.524188 115.687818,93.524188 C115.687818,93.524188 114.917416,97.9862191 113.784471,100.194699 C112.968751,101.772185 113.150022,108.487767 115.370594,112.58923 C115.008051,113.400508 114.554874,114.166715 113.965742,114.842781 C109.433964,120.025948 95.8386285,119.845664 91.3068501,119.845664 C87.1376139,119.845664 85.8687159,122.369641 85.6874448,122.77528 C77.3942902,125.118973 50.5208439,132.735976 47.348599,134.133178 C43.5872228,135.755734 41.5026047,151.981302 41.5026047,151.981302 C41.5026047,151.981302 33.6173102,178.888701 33.9798525,182.404241 C34.3423948,185.91978 31.351421,195.745263 31.351421,195.745263 C31.351421,195.745263 31.351421,206.832734 30.082523,207.598941 C30.082523,207.598941 30.0372052,207.598941 30.0372052,207.644012 C28.7229895,208.184864 28.9042606,213.593387 28.9042606,213.593387 C28.9042606,213.593387 29.9012519,213.863813 31.3967388,214.269452 C30.9888787,216.973713 29.4933918,220.80475 28.3604472,223.509011 C27.771316,222.787875 27.1821848,222.472378 26.8649603,223.328727 C25.9132868,225.67242 11.774138,242.393769 8.19403303,242.393769 C6.47195722,242.393769 3.66225457,243.790971 1.8042254,245.638883 C-0.189757127,247.757221 -1.05079503,250.416411 1.98549654,252.444607 Z M66.9258819,155.722196 C82.9683777,157.20954 100.143818,154.595421 100.143818,154.595421 C100.143818,154.595421 98.8296023,159.237736 97.6966577,161.130719 C96.5637131,162.978631 93.3461504,173.570321 93.3461504,175.778801 C93.3461504,177.987281 88.2705585,197.142464 86.7297538,198.043885 C86.0953048,198.449524 85.5514914,199.396015 85.0983136,200.387578 C84.6904535,201.288998 84.373229,202.23549 84.1013223,203.227052 C84.1013223,203.722833 84.1466401,204.173544 84.2372757,204.624254 C83.1043311,205.660887 81.9260687,206.742592 80.8384418,207.689083 C80.8384418,207.689083 74.0860919,211.429978 71.8202027,213.458174 C69.5543134,215.48637 58.9952696,218.010347 58.9952696,218.010347 C56.3668381,219.137122 53.8290422,220.399111 51.3818818,221.841384 C48.1190013,223.824509 44.810803,226.303415 43.9950829,228.782321 C44.3576252,224.635787 44.9920742,219.632904 45.3546164,216.477932 L45.9437476,216.432861 C51.2459284,216.117364 50.4302083,211.06941 50.1583016,209.852492 C50.1129838,209.672208 50.1129838,209.582066 50.1129838,209.582066 C53.87436,205.480603 62.3941035,175.057664 61.2611589,171.722409 C60.1282142,168.387153 62.2128323,165.412466 62.6660102,165.412466 C63.119188,165.412466 63.7083192,161.716642 62.8019635,159.643375 C61.8049723,157.570108 66.9258819,155.722196 66.9258819,155.722196 Z M196.625382,73.828152 L195.62839,74.0535071 L195.62839,73.828152 C195.62839,73.8732231 195.990933,73.8732231 196.625382,73.828152 Z M141.790862,45.8390483 C141.654909,46.0193323 141.473638,46.1996164 141.337684,46.3799005 L141.156413,46.5601846 C141.156413,46.1996164 141.156413,45.8841193 141.156413,45.5235511 C141.337684,45.6587642 141.564273,45.7489062 141.790862,45.8390483 Z M122.893346,81.8507937 L122.938664,82.8874272 C122.938664,82.8874272 122.848028,83.5184215 122.666757,84.600126 L122.893346,81.8507937 Z M209.586268,71.484459 L206.27807,72.0253112 C206.731248,71.8450271 207.184425,71.664743 207.637603,71.4393879 C207.954828,71.3041749 208.31737,71.1689618 208.679912,71.1689618 C209.087772,71.2140328 209.495632,71.3041749 209.903493,71.4393879 C209.858175,71.4393879 209.722221,71.4393879 209.586268,71.484459 Z" id="Shape" fill="url(#linearGradient-1)" fill-rule="nonzero"></path>
                <path d="M98.0434783,206.249237 C98.0434783,206.249237 94.2521294,213.900302 94.4326699,214.431012 C94.6132103,214.961722 86.3083509,221.462916 86.3083509,221.462916 L77.2813299,215.138625 L78.2291671,210.804496 C78.2291671,210.804496 88.3845658,201.826656 89.1067275,200.809463 C89.8740242,199.792269 98.0434783,206.249237 98.0434783,206.249237 Z" id="Shape" fill="#EFB7B9" fill-rule="nonzero"></path>
                <path d="M46.2315524,232.080317 C52.5185938,238.10576 59.8911674,236.27581 63.4191474,235.918747 C66.9471275,235.561684 85.6725599,224.44809 87.4817804,223.68933 C87.9340856,223.510799 88.5673128,222.841305 89.1100789,222.037913 C90.3313028,220.207963 91.3716046,218.244116 92.2762148,216.235635 C92.1405233,216.280268 85.9891735,218.020951 84.4513361,216.235635 C84.4513361,216.235635 81.8731968,213.111331 81.2852001,213.111331 C80.6972035,213.111331 81.2399696,207.621483 81.2399696,207.621483 C81.2399696,207.621483 74.6363147,211.281382 72.4200196,213.289863 C70.2037244,215.298344 59.8459369,217.753154 59.8459369,217.753154 C57.2677977,218.868976 54.7801194,220.118698 52.4281327,221.546951 C47.5432373,224.492723 42.6131114,228.643583 46.2315524,232.080317 Z" id="Shape" fill="#67647E" fill-rule="nonzero"></path>
                <path d="M46.2232383,232.055646 C52.4683585,238.115047 59.7917729,236.274785 63.2962288,235.915709 C66.8006848,235.556634 85.4012587,224.380405 87.1984156,223.617369 C87.6477048,223.437831 88.2767097,222.764565 88.8158568,221.956645 C86.6592685,220.654995 72.461729,229.67677 68.4630549,231.337495 C64.5093097,232.99822 54.4452311,232.055646 48.739258,229.67677 C45.9087358,228.46489 48.7841869,224.829249 52.3785007,221.462916 C47.5261771,224.425289 42.6289245,228.599543 46.2232383,232.055646 Z" id="Shape" fill="#000000" fill-rule="nonzero" opacity="0.1"></path>
                <path d="M47.2915601,213.748198 C47.2915601,213.748198 44.6680207,233.463738 45.3465222,236.080445 C46.0250238,238.652037 28.8363171,227.237778 28.8363171,227.237778 C28.8363171,227.237778 34.8523645,214.876089 33.0882604,212.033803 C31.3241563,209.146401 47.2915601,213.748198 47.2915601,213.748198 Z" id="Shape" fill="#E8C5B8" fill-rule="nonzero"></path>
                <path d="M31.1516962,212.923578 C31.1516962,212.923578 41.8911459,216.026368 47.8272974,215.666624 C53.0384228,215.351848 52.2227684,210.360404 51.9508836,209.146269 C51.9055694,208.966397 51.9055694,208.876461 51.9055694,208.876461 C55.6213284,204.829345 63.959129,174.700808 62.8262757,171.373178 C61.7387365,168.045549 63.7325584,165.167599 64.1856997,165.167599 C64.6388411,165.167599 65.2279248,161.480226 64.3216421,159.456667 C63.4153594,157.433109 68.3999142,155.589422 68.3999142,155.589422 C84.1239186,157.073365 100.980776,154.465223 100.980776,154.465223 C100.980776,154.465223 99.6666665,159.096924 98.5791273,160.895642 C97.4462739,162.739329 94.3195987,173.216865 94.3195987,175.420295 C94.3195987,177.623725 89.335044,196.555239 87.8396776,197.454598 C87.2052797,197.85931 86.6615101,198.803637 86.2083688,199.792932 C85.8005416,200.692292 85.4833426,201.636619 85.2114578,202.625914 C85.7552274,214.947137 99.847923,210.180532 101.887059,208.516718 C102.158944,208.291878 102.430829,208.02207 102.657399,207.707294 C103.382425,206.762967 103.744939,205.638768 103.699624,204.469601 C103.699624,204.469601 122.051849,185.897831 119.604885,178.208309 C117.203236,170.473819 125.541037,170.293947 125.541037,170.293947 C125.541037,170.293947 138.319623,164.762887 140.086874,161.480226 C141.174413,159.456667 150.781009,154.959871 157.985957,151.857081 C162.51737,149.878491 166.097187,148.439516 166.097187,148.439516 L163.106454,137.73714 L160.750119,129.328131 L156.309334,127.664316 L142.035382,122.358096 L116.47821,118.805627 L114.121875,119.120402 L89.2897299,122.313128 C89.2897299,122.313128 52.9931087,132.610792 49.3226638,134.229639 C45.6069048,135.848486 43.5677688,151.902049 43.5677688,151.902049 C43.5677688,151.902049 35.7737378,178.568053 36.181565,182.075554 C36.5440781,185.583055 33.5986594,195.296136 33.5986594,195.296136 C33.5986594,195.296136 33.5986594,206.268319 32.3298636,207.032775 C32.3298636,207.032775 32.2845495,207.032775 32.2845495,207.032775 C30.9704396,207.617358 31.1516962,212.923578 31.1516962,212.923578 Z" id="Shape" fill="#444053" fill-rule="nonzero"></path>
                <path d="M68.0537084,156.412965 C83.8868892,157.896932 100.860789,155.288747 100.860789,155.288747 C102.001508,151.826157 117.652174,142.247822 117.652174,142.247822 C104.784863,139.144981 68.0537084,156.412965 68.0537084,156.412965 Z" id="Shape" fill="#000000" fill-rule="nonzero" opacity="0.1"></path>
                <path d="M84.202046,203.627866 C84.7413226,216.563755 98.717574,211.55936 100.739861,209.812543 C101.009499,209.576487 101.279138,209.293219 101.503836,208.96274 C96.6054074,210.851191 87.9769821,212.31474 85.1457801,200.700767 C84.7862623,201.644993 84.4716843,202.636429 84.202046,203.627866 Z" id="Shape" fill="#444053" fill-rule="nonzero"></path>
                <path d="M31.1520627,213.911564 C31.1520627,213.911564 41.7586256,217.199561 47.6213249,216.818344 C52.7679693,216.484779 51.9624076,211.195393 51.693887,209.908786 C46.3234754,209.718177 37.0595154,209.194004 32.2708984,207.621483 C32.2708984,207.621483 32.226145,207.621483 32.226145,207.621483 C30.973049,208.288613 31.1520627,213.911564 31.1520627,213.911564 Z" id="Shape" fill="#444053" fill-rule="nonzero"></path>
                <path d="M84.202046,203.627866 C84.7413226,216.563755 98.717574,211.55936 100.739861,209.812543 C101.009499,209.576487 101.279138,209.293219 101.503836,208.96274 C96.6054074,210.851191 87.9769821,212.31474 85.1457801,200.700767 C84.7862623,201.644993 84.4716843,202.636429 84.202046,203.627866 Z" id="Shape" fill="#000000" fill-rule="nonzero" opacity="0.1"></path>
                <path d="M31.1520627,213.911564 C31.1520627,213.911564 41.7586256,217.199561 47.6213249,216.818344 C52.7679693,216.484779 51.9624076,211.195393 51.693887,209.908786 C46.3234754,209.718177 37.0595154,209.194004 32.2708984,207.621483 C32.2708984,207.621483 32.226145,207.621483 32.226145,207.621483 C30.973049,208.288613 31.1520627,213.911564 31.1520627,213.911564 Z" id="Shape" fill="#000000" fill-rule="nonzero" opacity="0.1"></path>
                <path d="M4.24710943,252.412178 C9.92267437,256.339207 18.503056,254.467019 18.503056,254.467019 C18.503056,254.467019 31.4630075,248.119844 35.3063034,248.119844 C39.1495993,248.119844 48.4450128,244.192814 48.4450128,244.192814 L48.1321864,241.544353 L46.6127438,228.895665 C46.6127438,228.895665 32.4014867,228.53036 31.8205234,227.206129 C31.8205234,227.206129 29.2732226,220.767628 28.3347433,223.142111 C27.4409536,225.516594 13.7212808,242.320626 10.2355008,242.320626 C8.58198974,242.320626 5.85593099,243.736183 4.06835148,245.608371 C2.10201402,247.708876 1.29760324,250.357337 4.24710943,252.412178 Z" id="Shape" fill="#67647E" fill-rule="nonzero"></path>
                <path d="M54.2122762,143.028133 C54.2122762,143.028133 66.1855181,150.486138 62.8546162,152.084281 C59.5687265,153.726818 54.2122762,143.028133 54.2122762,143.028133 Z" id="Shape" fill="#000000" fill-rule="nonzero" opacity="0.1"></path>
                <path d="M48.4450128,158.023018 C48.4450128,158.023018 58.2087904,168.119534 54.5420442,168.398701 C50.875298,168.677867 48.4450128,158.023018 48.4450128,158.023018 Z" id="Shape" fill="#000000" fill-rule="nonzero" opacity="0.1"></path>
                <path d="M38.0639386,189.16624 C38.0639386,189.16624 42.9613122,198.860239 41.1036877,200.550019 C39.2460633,202.239798 38.0639386,189.16624 38.0639386,189.16624 Z" id="Shape" fill="#000000" fill-rule="nonzero" opacity="0.1"></path>
                <path d="M95.8613792,199.261031 C94.0150751,201.159136 113.33372,193.011174 108.920603,192.640812 C104.507486,192.27045 95.8613792,199.261031 95.8613792,199.261031 Z" id="Shape" fill="#000000" fill-rule="nonzero" opacity="0.1"></path>
                <path d="M134.953964,61.1329923 L135.597107,61.0415291 C137.939985,60.6756763 146.39272,59.3494598 153.972619,57.703122 C155.81017,57.2915376 157.601783,56.8799531 159.255579,56.4683687 C165.089804,54.9592258 168.9946,53.312888 166.467967,51.9866715 C163.160375,50.2031389 161.46064,46.956195 160.541865,44.2122987 C160.449987,43.9379091 160.358109,43.6635195 160.312171,43.3891299 C159.898722,41.9714501 159.669028,40.5537704 159.57715,39.0903591 C159.57715,39.0903591 138.399373,31.590376 142.487924,39.0903591 C144.50923,42.7488874 143.131067,45.7671733 141.247577,47.8708271 C139.915352,49.2427752 138.399373,50.3860653 136.653699,51.2549658 L134.953964,61.1329923 Z" id="Shape" fill="#E8C5B8" fill-rule="nonzero"></path>
                <path d="M157.333968,55.3657289 C157.333968,55.3657289 149.896464,60.7612033 142.278657,56.2725313 C134.660851,51.8291994 124.744179,95.5370764 124.744179,95.5370764 L114.421825,121.108905 C114.421825,121.108905 107.75061,126.68574 116.044554,129.088766 C124.338497,131.491793 142.819567,126.68574 147.507448,133.713458 C152.195329,140.741177 161.075258,141.87468 161.976773,141.87468 C162.878289,141.87468 166.349124,115.396049 166.349124,115.396049 L167.250639,77.0383069 L157.333968,55.3657289 Z" id="Shape" fill="#000000" fill-rule="nonzero" opacity="0.1"></path>
                <path d="M116.046848,126.781861 C124.333126,129.184887 142.797114,124.378834 147.480662,131.406553 C149.462163,134.262981 152.209244,136.529987 155.406667,137.84485 C157.478236,138.796993 159.684908,139.386414 161.936614,139.567775 C162.071716,139.567775 162.251852,139.114374 162.431989,138.252911 C163.737978,132.902777 166.349957,113.089144 166.349957,113.089144 L167.250639,74.7314015 L158.514021,55.6432104 L157.298099,53.0588235 C156.127212,53.8296056 154.866257,54.4643673 153.515234,54.9177685 C150.63305,55.9152512 146.489911,56.4593326 142.256704,53.965626 C140.004998,52.6507624 137.573156,55.5071901 135.276416,60.1772226 C129.692186,71.4215726 124.738433,93.230171 124.738433,93.230171 L114.42562,118.84734 C114.200449,119.07404 113.930244,119.300741 113.705074,119.527441 C112.263982,121.069005 109.516901,124.877576 116.046848,126.781861 Z" id="Shape" fill="#F3F5F9" fill-rule="nonzero"></path>
                <path d="M156.314466,127.915141 C155.892735,131.127378 155.799017,134.384858 156.080171,137.642338 C156.408184,142.257101 156.970492,146.871864 157.860814,151.396142 C157.907673,151.667598 158.001391,151.984298 158.095109,152.255754 C162.78101,150.265072 166.482872,148.817303 166.482872,148.817303 L163.390177,138.049523 C164.749089,132.710875 167.466912,112.939782 167.466912,112.939782 L168.404092,74.6643925 L159.313443,55.6171835 C165.264538,54.1241719 169.247554,52.4954319 166.670309,51.1833914 C162.968446,49.237952 161.187804,45.5732871 160.344341,42.6777494 C158.797994,44.7589171 156.970492,46.6591137 154.908696,48.3330964 L154.768119,48.423582 L154.065233,54.8932991 L153.830938,56.8839812 L153.409207,61.0010739 C153.409207,61.0010739 155.517863,109.637059 157.06421,112.396868 C158.610558,115.156678 157.813955,120.540568 156.501902,126.829314 C156.455043,127.146013 156.408184,127.507956 156.314466,127.915141 Z" id="Shape" fill="#000000" fill-rule="nonzero" opacity="0.1"></path>
                <path d="M156.380194,125.817256 C155.07476,132.083776 156.200134,142.407754 157.685627,150.342339 C159.171121,158.276925 174.791308,153.092395 177.762295,150.342339 C180.688267,147.592284 189.331137,146.284881 189.331137,146.284881 C189.331137,146.284881 189.691257,110.173499 192.482184,105.575046 C193.787617,103.411068 194.102722,96.2428915 194.057707,89.3902947 C194.012692,83.2139411 193.742602,77.217919 193.607557,75.1891897 C193.562542,74.7383609 193.562542,74.4678637 193.562542,74.4678637 C193.562542,74.4678637 205.536519,54.1805707 205.311444,52.7379188 C205.131384,51.250184 201.620218,51.0698525 201.620218,51.0698525 C201.620218,51.0698525 188.385823,40.7458745 186.180091,42.0532778 C183.929343,43.3606812 177.89734,40.0245485 177.89734,40.0245485 C177.89734,40.0245485 170.199783,40.8811231 168.62426,39.3933883 C168.4442,39.2130568 168.309156,38.9876425 168.35417,38.7171452 C168.53423,36.3728358 160.521569,31.323554 160.25148,31.1432225 C167.003722,37.2294104 156.065089,46.606648 154.849686,47.6435541 L154.714641,47.7337199 L153.409207,60.2216758 C153.409207,60.2216758 155.43488,108.685764 156.920373,111.43582 C158.405867,114.185875 157.640612,119.550737 156.380194,125.817256 Z" id="Shape" fill="#67647E" fill-rule="nonzero"></path>
                <circle id="Oval" fill="#444053" fill-rule="nonzero" cx="158.023018" cy="73.8209719" r="1.15345269"></circle>
                <path d="M155.716113,48.8121281 L161.325059,54.2122762 L169.557545,40.531901 C169.376611,40.3518961 169.240911,40.1268899 169.286144,39.8568825 C169.467078,37.5168184 161.415526,32.4766801 161.144125,32.2966752 C167.929141,38.416843 156.982649,47.7770997 155.716113,48.8121281 Z" id="Shape" fill="#000000" fill-rule="nonzero" opacity="0.1"></path>
                <circle id="Oval" fill="#000000" fill-rule="nonzero" opacity="0.1" cx="159.176471" cy="103.810742" r="1.15345269"></circle>
                <circle id="Oval" fill="#444053" fill-rule="nonzero" cx="159.176471" cy="102.657289" r="1.15345269"></circle>
                <path d="M154.56266,47.6586754 L160.171606,53.0588235 L168.404092,39.3784484 C168.223158,39.1984434 168.087458,38.9734372 168.132691,38.7034298 C168.313625,36.3633657 160.262073,31.3232274 159.990672,31.1432225 C166.820922,37.2633903 155.829196,46.6686483 154.56266,47.6586754 Z" id="Shape" fill="#67647E" fill-rule="nonzero"></path>
                <path d="M161.188983,100.350384 L149.591155,100.076334 C149.125379,100.076334 148.752758,99.7109348 148.799336,99.2541856 L149.404845,73.4478557 C149.404845,72.9911065 149.777466,72.6257072 150.243242,72.6713821 L161.84107,72.9454316 C162.306846,72.9454316 162.679467,73.310831 162.632889,73.7675802 L162.02738,99.57391 C162.02738,99.9849843 161.654759,100.350384 161.188983,100.350384 Z" id="Shape" fill="#D1D9EC" fill-rule="nonzero"></path>
                <path d="M161.188983,100.350384 L149.591155,100.076334 C149.125379,100.076334 148.752758,99.7109348 148.799336,99.2541856 L149.404845,73.4478557 C149.404845,72.9911065 149.777466,72.6257072 150.243242,72.6713821 L161.84107,72.9454316 C162.306846,72.9454316 162.679467,73.310831 162.632889,73.7675802 L162.02738,99.57391 C162.02738,99.9849843 161.608182,100.350384 161.188983,100.350384 Z" id="Shape" fill="#DFE6F5" fill-rule="nonzero"></path>
                <circle id="Oval" fill="#FFFFFF" fill-rule="nonzero" cx="156.869565" cy="81.8951407" r="2.30690537"></circle>
                <path d="M86.5089514,125.267866 C91.1032157,127.307181 121.281226,121.959643 125.740365,120.645417 C130.199504,119.331192 136.595441,109.361205 133.487556,102.110306 C130.334629,94.8594065 134.568559,87.8350977 134.568559,87.8350977 C134.568559,87.8350977 141.189705,73.5598895 142.676085,70.7954841 C144.162464,68.0310787 147.225307,59.9191351 147.630683,58.5595914 C147.675725,58.2423646 147.585641,57.9251377 147.360432,57.6985471 C146.144304,55.8858223 141.550039,52.6229175 141.550039,52.6229175 C140.243827,53.0760988 140.108702,49.3600128 140.153743,46.5956074 C140.198785,45.0547913 140.288869,43.831202 140.288869,43.831202 C140.288869,43.831202 139.658283,44.4656557 138.667364,45.3267 C138.307029,45.6439269 137.901653,45.9611537 137.406193,46.3236987 C135.694604,47.7285605 133.712765,48.8161954 131.640842,49.4959672 C127.226745,50.8101927 120.965934,56.8828209 120.965934,56.8828209 L122.812648,85.342601 C122.812648,85.342601 118.578718,112.080292 114.164621,117.291876 C109.750524,122.458142 96.5082325,122.27687 92.0941355,122.27687 C87.5899548,122.322188 86.5089514,125.267866 86.5089514,125.267866 Z" id="Shape" fill="#000000" fill-rule="nonzero" opacity="0.1"></path>
                <path d="M86.5089514,124.114159 C91.1032157,126.154604 121.281226,120.804105 125.740365,119.489152 C130.154462,118.174198 136.595441,108.198692 133.487556,100.943778 C130.379671,93.6888635 134.568559,86.6606656 134.568559,86.6606656 C134.568559,86.6606656 141.189705,72.3775536 142.676085,69.6116177 C144.162464,66.8456817 147.225307,58.7292466 147.630683,57.3689502 C147.675725,57.0515478 147.585641,56.7341453 147.360432,56.5074292 C146.144304,54.6937007 141.550039,51.4743326 141.550039,51.4743326 C140.243827,51.9277647 140.108702,48.2096213 140.153743,45.4436853 C140.198785,43.9020161 140.288869,42.6777494 140.288869,42.6777494 C140.288869,42.6777494 139.658283,43.3125543 138.667364,44.1740754 C138.307029,44.4914779 137.901653,44.8088804 137.406193,45.1716261 C135.649563,46.5772656 133.712765,47.6655027 131.5958,48.3456509 C127.181703,49.6606041 120.920892,55.7365946 120.920892,55.7365946 L122.767606,84.2121321 C122.767606,84.2121321 118.533676,110.964628 114.119579,116.179097 C109.705482,121.393566 96.4631907,121.16685 92.0490936,121.16685 C87.5899548,121.16685 86.5089514,124.114159 86.5089514,124.114159 Z" id="Shape" fill="#67647E" fill-rule="nonzero"></path>
                <path d="M136.107417,42.6777494 C136.107417,42.6777494 136.287176,43.6846286 136.556814,45.1949473 C137.545488,50.3208778 139.882353,61.5338506 141.590062,61.1219455 C142.803434,60.8015748 144.870661,58.6047475 146.488491,56.7282908 C145.275119,54.8976014 140.691268,51.6023604 140.691268,51.6023604 C139.388016,52.0600328 139.253197,48.3071194 139.298137,45.515318 L137.815126,44.1880682 L136.107417,42.6777494 Z" id="Shape" fill="#000000" fill-rule="nonzero" opacity="0.1"></path>
                <path d="M137.26087,42.6777494 C137.26087,42.6777494 137.440628,43.6846286 137.710267,45.1949473 C138.69894,50.3208778 141.035806,61.5338506 142.743515,61.1219455 C143.956887,60.8015748 146.024114,58.6047475 147.641944,56.7282908 C146.428571,54.8976014 141.84472,51.6023604 141.84472,51.6023604 C140.541469,52.0600328 140.40665,48.3071194 140.451589,45.515318 L138.968579,44.1880682 L137.26087,42.6777494 Z" id="Shape" fill="#67647E" fill-rule="nonzero"></path>
                <path d="M124.572197,96.5376237 C124.572197,96.5376237 133.773252,94.6839856 136.389239,90.615024 C138.960122,86.5460624 156.505272,83.019629 154.385421,87.314644 C152.220467,91.5644484 136.389239,105.489339 136.389239,105.489339 L129.53355,115.345269 L120.377598,112.994313 L116.498721,105.444129 L124.572197,96.5376237 Z" id="Shape" fill="#E8C5B8" fill-rule="nonzero"></path>
                <path d="M146.488491,107.2711 C146.488491,107.2711 137.562678,110.753693 136.210282,115.476661 C134.902966,120.151923 146.488491,107.2711 146.488491,107.2711 Z" id="Shape" fill="#000000" fill-rule="nonzero" opacity="0.1"></path>
                <path d="M152.242717,113.038363 C152.242717,113.038363 153.054128,118.021137 141.87468,117.630331 L152.242717,113.038363 Z" id="Shape" fill="#000000" fill-rule="nonzero" opacity="0.1"></path>
                <path d="M200.97095,53.4191211 L205.006364,53.0588235 C205.006364,53.0588235 209.400482,56.346539 212.718489,56.346539 C216.036496,56.346539 218.054203,60.5800356 218.054203,60.5800356 C218.054203,60.5800356 223.569268,63.1471559 225.407624,63.5074535 C227.245979,63.8677511 230.339796,65.7142762 229.443037,66.4348714 C228.546279,67.1554665 229.622389,68.8218429 231.281393,70.1279216 C232.940396,71.4340004 235.496158,78.0544685 233.2991,78.9552125 C231.057203,79.8559564 225.04892,81.7024815 223.434754,82.6482627 C221.820589,83.5490067 219.758044,82.6482627 219.758044,82.6482627 C219.758044,82.6482627 210.073051,69.9477728 205.09604,72.3347443 C200.11903,74.7217158 193.348502,74.7217158 193.348502,74.7217158 L188.012788,63.5074535 L200.97095,53.4191211 Z" id="Shape" fill="#000000" fill-rule="nonzero" opacity="0.1"></path>
                <path d="M115.428418,113.938694 C116.260926,115.246328 117.356331,116.148144 118.758449,116.328507 C122.263743,116.734325 125.812854,116.418689 129.186701,115.336509 C129.186701,115.336509 111.134432,109.429613 128.529458,95.0907346 L123.884942,95.0907346 L122.30756,94.504554 L123.008619,90.671835 L124.016391,56.2675451 L120.248199,55.3657289 C120.248199,55.3657289 117.224882,78.0464075 116.480007,80.7969471 C115.735132,83.5474866 115.209338,94.2340091 115.209338,94.2340091 C115.209338,94.2340091 114.508279,98.6529088 113.412874,100.862359 C112.667999,102.530719 112.88708,110.015793 115.428418,113.938694 Z" id="Shape" fill="#67647E" fill-rule="nonzero"></path>
                <path d="M116.498721,113.947839 C117.33626,115.250801 118.438285,116.149396 119.848877,116.329115 C123.375356,116.733483 126.945917,116.418975 130.340153,115.340661 C130.340153,115.340661 112.178784,109.454865 129.678939,95.1672068 L125.006353,95.1672068 L123.463518,94.5831202 C120.86274,99.2108836 116.851369,107.477956 116.498721,113.947839 Z" id="Shape" fill="#000000" fill-rule="nonzero" opacity="0.1"></path>
                <path d="M115.345269,113.947839 C116.182807,115.250801 117.284832,116.149396 118.695424,116.329115 C122.221904,116.733483 125.792464,116.418975 129.186701,115.340661 C129.186701,115.340661 111.025331,109.454865 128.525486,95.1672068 L123.8529,95.1672068 L122.265985,94.5831202 C119.709287,99.2108836 115.653836,107.477956 115.345269,113.947839 Z" id="Shape"></path>
                <path d="M115.345269,113.947839 C116.182807,115.250801 117.284832,116.149396 118.695424,116.329115 C122.221904,116.733483 125.792464,116.418975 129.186701,115.340661 C129.186701,115.340661 111.025331,109.454865 128.525486,95.1672068 L123.8529,95.1672068 L122.265985,94.5831202 C119.709287,99.2108836 115.653836,107.477956 115.345269,113.947839 Z" id="Shape" fill="#67647E" fill-rule="nonzero"></path>
                <path d="M140.721228,48.0529102 C147.381663,51.0701451 155.253088,49.5847371 160.329923,44.3393903 C160.23677,44.0608763 160.143617,43.7823623 160.097041,43.5038483 C159.677853,42.0648594 159.44497,40.6258704 159.351817,39.1404625 C159.351817,39.1404625 137.880063,31.5277467 142.025369,39.1404625 C144.028157,42.9004013 142.630863,45.9176362 140.721228,48.0529102 Z" id="Shape" fill="#000000" fill-rule="nonzero" opacity="0.1"></path>
                <path d="M130.340153,31.6905875 L130.340153,31.8706515 C130.340153,32.4108437 130.385113,32.9510358 130.430073,33.4912279 C130.475033,34.03142 130.564953,34.4815802 130.654872,34.9767563 C132.453266,44.0249745 141.265397,49.9220719 150.347286,48.1214315 C156.192067,46.9510152 160.957811,42.7645262 162.891084,37.1375248 C163.025964,36.8224127 163.115884,36.5073006 163.205803,36.1471726 C163.610442,34.7066602 163.790281,33.1761158 163.790281,31.6905875 C163.790281,31.3304594 163.790281,30.9253153 163.745321,30.5651872 C163.070924,21.336905 155.068071,14.4044393 145.896261,15.0346635 C137.174051,15.6648876 130.385113,22.9124654 130.340153,31.6905875 Z" id="Shape" fill="#E8C5B8" fill-rule="nonzero"></path>
                <path d="M130.385234,31.6743521 C130.475397,32.2068403 130.520478,32.7393285 130.475397,33.2718166 C130.475397,33.5380607 130.475397,33.8486788 130.520478,34.1149229 C130.565559,34.336793 130.61064,34.5586631 130.700802,34.7361592 C131.377017,36.2892497 133.585988,37.3098521 135.028581,36.2892497 C135.569553,35.8455096 136.020364,35.2686473 136.335931,34.6030371 C137.868686,31.7631001 140.032576,28.523797 143.413654,28.4350489 C144.856247,28.3906749 146.208678,29.0119111 147.60619,29.3669033 C149.003702,29.7218954 150.6717,29.7662694 151.708564,28.8344151 C152.520023,28.1244308 152.880671,26.8819584 153.962616,26.6157143 C155.044561,26.3494702 156.036343,27.3256985 156.532235,28.3019269 C157.028126,29.2781552 157.433855,30.3875056 158.425638,30.8756198 C158.876449,31.0974899 159.37234,31.1418639 159.82315,31.408108 C161.806716,32.4730844 160.905095,36.2892497 162.978823,36.8661119 C163.023904,36.8661119 163.114066,36.9104859 163.159147,36.9104859 C163.204228,36.5554938 163.249309,36.2448757 163.249309,35.8898836 C163.429633,34.0261749 163.609957,32.2068403 163.790281,30.3431316 C163.114066,21.2464584 155.089642,14.4128599 145.89311,15.0340962 C137.14739,15.6553324 130.340153,22.7995489 130.340153,31.452482 L130.385234,31.6743521 Z" id="Shape" fill="#000000" fill-rule="nonzero" opacity="0.1"></path>
                <path d="M160.679161,6.36103328 C162.688536,7.228656 164.743579,8.50725791 165.200255,10.5621538 C165.382925,11.4754409 165.245923,12.388728 165.29159,13.3020151 C165.382925,15.1285892 166.25061,16.8638346 166.798621,18.5990801 C167.346633,20.3343255 167.574971,22.4348858 166.43328,23.8961451 C166.06794,24.3527887 165.611263,24.7637678 165.29159,25.2204114 C164.880582,25.9967054 164.652244,26.8643281 164.652244,27.7319508 L163.738891,36.9104859 C161.364175,36.4538424 162.414531,32.3440506 160.31382,31.2024417 C159.857144,30.9741199 159.3548,30.8827912 158.898124,30.6544695 C157.893437,30.1978259 157.482428,29.0105527 156.980085,28.005937 C156.477741,27.0013212 155.473053,26.0423697 154.377031,26.2706915 C153.281008,26.5446776 152.915667,27.7776152 152.09365,28.5539092 C151.043295,29.5128606 149.353593,29.4671963 147.937897,29.1018814 C146.522201,28.7365666 145.152173,28.14293 143.690809,28.14293 C140.265738,28.1885944 138.073693,31.5677565 136.520994,34.4902752 C136.201321,35.1752405 135.744644,35.7688771 135.196633,36.2255206 C133.552599,37.4127938 130.903877,35.9058702 130.629872,33.9423029 C130.447201,32.8463585 130.812542,31.6134209 130.173196,30.7001338 C129.533849,29.7868468 128.163821,29.558525 127.113466,29.0562171 C124.373409,27.8232795 123.551392,24.398453 124.008068,21.5215987 C124.327741,19.4667028 125.149758,17.3661425 124.464744,15.356911 C124.236406,14.6719457 123.825397,14.0326447 123.597059,13.3476794 C123.00338,11.4297765 123.9624,9.28355192 125.515099,7.95928566 C127.067798,6.58935505 129.077173,5.85872539 131.04088,5.17376008 C136.109985,3.484179 141.498764,1.84026226 146.887542,1.47494743 C149.262258,1.33795437 152.367656,0.561660357 154.240028,2.06858403 C156.569076,3.89515818 157.939104,5.21942444 160.679161,6.36103328 Z" id="Shape" fill="#8E7852" fill-rule="nonzero"></path>
                <circle id="Oval" fill="#000000" fill-rule="nonzero" opacity="0.1" cx="156.869565" cy="58.826087" r="1.15345269"></circle>
                <circle id="Oval" fill="#444053" fill-rule="nonzero" cx="156.869565" cy="58.826087" r="1.15345269"></circle>
                <circle id="Oval" fill="#000000" fill-rule="nonzero" opacity="0.1" cx="162.636829" cy="117.652174" r="1.15345269"></circle>
                <circle id="Oval" fill="#444053" fill-rule="nonzero" cx="162.636829" cy="116.498721" r="1.15345269"></circle>
                <circle id="Oval" fill="#000000" fill-rule="nonzero" opacity="0.1" cx="159.176471" cy="132.647059" r="1.15345269"></circle>
                <circle id="Oval" fill="#444053" fill-rule="nonzero" cx="159.176471" cy="132.647059" r="1.15345269"></circle>
                <path d="M128.033248,73.8209719 C128.033248,73.8209719 125.43798,87.3996755 128.033248,89.7592535 C130.628517,92.1188315 128.033248,73.8209719 128.033248,73.8209719 Z" id="Shape" fill="#000000" fill-rule="nonzero" opacity="0.1"></path>
                <path d="M187.472838,99.1969309 C187.472838,99.1969309 191.282993,107.620255 187.472838,115.679328 C183.662683,123.7384 181.314565,127.016667 182.599384,132.161725 C183.884204,137.352314 187.472838,99.1969309 187.472838,99.1969309 Z" id="Shape" fill="#000000" fill-rule="nonzero" opacity="0.1"></path>
                <path d="M4.24272817,252.539518 C9.91885572,256.26659 18.5000879,254.48973 18.5000879,254.48973 C18.5000879,254.48973 31.4613241,248.465742 35.305001,248.465742 C39.1486779,248.465742 48.4450128,244.73867 48.4450128,244.73867 L48.1321554,242.225064 C44.3331724,242.918473 35.7519402,244.608656 34.768674,245.432079 C33.4725504,246.51553 17.7849852,251.629419 17.7849852,251.629419 C17.7849852,251.629419 7.1031389,250.329278 4.10864641,246.08215 C2.09742012,248.0757 1.2929296,250.589306 4.24272817,252.539518 Z" id="Shape" fill="#000000" fill-rule="nonzero" opacity="0.1"></path>
                <g id="Group" opacity="0.1" transform="translate(123.419437, 10.381074)" fill="#000000" fill-rule="nonzero">
                    <path d="M41.7977958,0.960547667 C41.7977958,0.777586207 41.7977958,0.548884381 41.7977958,0.365922921 C41.7977958,0.594624746 41.7977958,0.823326572 41.7977958,1.0520284 C41.7977958,1.00628803 41.7977958,1.00628803 41.7977958,0.960547667 Z" id="Shape"></path>
                    <path d="M4.06681256,16.8781947 C5.1061091,17.3355984 6.41652649,17.5643002 7.09432858,18.4791075 C7.77213067,19.4396552 7.36544942,20.6289047 7.54619664,21.7266734 C7.81731748,23.6935091 10.4381522,25.1572008 12.0648773,24.0136917 C12.6523057,23.556288 13.058987,22.9616633 13.3752946,22.2755578 C14.9116461,19.3481744 17.0806128,16.0091278 20.4696232,15.9176471 C21.915601,15.8719067 23.2712052,16.5122718 24.6719962,16.8781947 C26.0727872,17.2441176 27.744699,17.289858 28.7839956,16.3293103 C29.5973581,15.5974645 29.9588525,14.3167343 31.0433359,14.0422921 C32.1278192,13.7678499 33.121929,14.7741379 33.6189838,15.780426 C34.1160387,16.7409736 34.52272,17.9302231 35.5168297,18.4333671 C35.9686978,18.662069 36.4657526,18.7078093 36.9176207,18.9822515 C38.9962138,20.1257606 37.9569172,24.2423935 40.3066312,24.6997972 C40.6229388,21.6351927 40.9392464,18.5705882 41.2103673,15.5059838 C41.2103673,14.6369168 41.4363013,13.8135903 41.8429826,13.0360041 C42.1592902,12.5786004 42.6111583,12.1669371 42.9726527,11.6637931 C43.379334,11.0691684 43.6504548,10.3830629 43.7408284,9.6969574 C43.9215757,10.9319473 43.6504548,12.1669371 42.9726527,13.1732252 C42.6111583,13.6306288 42.1592902,14.0422921 41.8429826,14.4996957 C41.4363013,15.2772819 41.2103673,16.1463489 41.2103673,17.0154158 C40.8940596,20.0800203 40.577752,23.1446247 40.3066312,26.2092292 C37.9569172,25.7518256 38.9962138,21.6351927 36.9176207,20.4916836 C36.4657526,20.2629817 35.9686978,20.171501 35.5168297,19.9427992 C34.52272,19.4853955 34.1160387,18.296146 33.6189838,17.289858 C33.121929,16.28357 32.1278192,15.3230223 31.0433359,15.5517241 C29.9588525,15.8261663 29.5973581,17.0611562 28.7839956,17.8387424 C27.744699,18.7992901 26.0727872,18.7535497 24.6719962,18.3876268 C23.2712052,18.0217039 21.915601,17.4270791 20.4696232,17.4270791 C17.0806128,17.4728195 14.9116461,20.8576065 13.3752946,23.7849899 C13.058987,24.4710953 12.6071189,25.0657201 12.0648773,25.5231237 C10.4381522,26.7123732 7.81731748,25.2029412 7.54619664,23.2361055 C7.36544942,22.1383367 7.72694387,20.9033469 7.09432858,19.9885396 C6.46171329,19.0737323 5.1061091,18.8450304 4.06681256,18.3418864 C1.58153822,17.1983773 0.677802093,14.2252535 0.903736125,11.5723124 C1.03929654,13.7678499 2.03340628,15.9176471 4.06681256,16.8781947 Z" id="Shape"></path>
                    <path d="M0.587428481,1.14350913 C0.813362512,1.8296146 1.17485696,2.46997972 1.4459778,3.15608519 C1.67191183,3.9336714 1.76228544,4.80273834 1.67191183,5.62606491 C1.62672502,5.30588235 1.58153822,4.9856998 1.4459778,4.66551724 C1.22004377,3.97941176 0.813362512,3.33904665 0.587428481,2.65294118 C0.406681256,2.01257606 0.36149445,1.37221095 0.497054869,0.686105477 C0.497054869,0.869066937 0.542241675,1.00628803 0.587428481,1.14350913 Z" id="Shape"></path>
                </g>
                <path d="M228.883891,163.786477 L190.454108,159.043488 C189.632569,158.953145 189.084876,158.230404 189.176158,157.41732 C189.221799,157.10112 189.358722,156.830092 189.586928,156.604236 L205.698226,140.026357 C206.017714,139.710158 206.474124,139.529472 206.930535,139.574644 L236.323386,142.82698 C237.144925,142.917322 237.692618,143.640064 237.601336,144.453148 C237.601336,144.588662 237.555695,144.679004 237.510054,144.814518 L230.435687,162.928222 C230.161841,163.470278 229.522866,163.831649 228.883891,163.786477 Z" id="Shape" fill="#746D83" fill-rule="nonzero"></path>
                <path d="M228.883891,163.786477 L190.454108,159.043488 C189.632569,158.953145 189.084876,158.230404 189.176158,157.41732 C189.221799,157.10112 189.358722,156.830092 189.586928,156.604236 L205.698226,140.026357 C206.017714,139.710158 206.474124,139.529472 206.930535,139.574644 L236.323386,142.82698 C237.144925,142.917322 237.692618,143.640064 237.601336,144.453148 C237.601336,144.588662 237.555695,144.679004 237.510054,144.814518 L230.435687,162.928222 C230.161841,163.470278 229.522866,163.831649 228.883891,163.786477 Z" id="Shape" fill="#000000" fill-rule="nonzero" opacity="0.1"></path>
                <path d="M227.699001,163.777741 L189.299636,159.000218 C188.478747,158.910076 187.931488,158.188941 188.022697,157.377663 C188.068302,157.062166 188.205117,156.79174 188.433142,156.566386 L204.531688,140.025338 C204.850923,139.709841 205.306972,139.529558 205.763022,139.574629 L235.132608,142.819739 C235.953497,142.909881 236.500756,143.631016 236.455151,144.442294 C236.455151,144.577507 236.409546,144.667649 236.363941,144.802861 L229.295174,162.876322 C229.021545,163.462244 228.383075,163.867883 227.699001,163.777741 Z" id="Shape" fill="#746D83" fill-rule="nonzero"></path>
                <path d="M205.688781,146.715476 L216.941373,147.641944 L232.997442,146.576506 L232.730583,146.576506 L217.875383,145.094157 C214.450681,143.797101 216.85242,136.107417 216.85242,136.107417 L205.466398,136.709621 L204.576865,136.755944 C200.485014,146.530182 205.688781,146.715476 205.688781,146.715476 Z" id="Shape" fill="#D1D9EC" fill-rule="nonzero"></path>
                <path d="M205.70382,145.608739 L216.950215,146.488491 L232.997442,145.476776 L232.73073,145.476776 L216.505694,146.048615 L205.659368,144.86095 C202.592169,144.069173 204.325803,138.746673 205.437107,136.107417 L204.548064,136.151404 C200.502918,145.432789 205.70382,145.608739 205.70382,145.608739 Z" id="Shape" fill="#000000" fill-rule="nonzero" opacity="0.1"></path>
                <path d="M185.731792,78.6635133 L189.228434,129.099557 L189.682543,135.733487 C189.773365,137.232937 191.044871,138.414322 192.588843,138.414322 L193.633295,138.414322 L246.537031,138.096257 C247.354427,138.096257 248.035591,137.414689 247.99018,136.596807 C247.99018,136.551369 247.99018,136.505931 247.99018,136.460494 L247.536071,129.826563 L243.812375,85.4791949 C243.676142,84.2978101 242.904156,83.2981768 241.768883,82.8892359 L191.317337,75.3011104 C189.591722,74.710418 187.866106,74.9376073 186.776244,75.8463649 C186.004258,76.5733709 185.59556,77.6184421 185.731792,78.6635133 Z" id="Shape" fill="#4C4C56" fill-rule="nonzero"></path>
                <path d="M189.16624,128.033248 L189.62083,134.605115 C189.711748,136.090537 190.9846,137.26087 192.530206,137.26087 L193.575763,137.26087 L246.53549,136.94578 C247.353752,136.94578 248.035637,136.270588 247.990178,135.460358 C247.990178,135.415345 247.990178,135.370332 247.990178,135.32532 L247.535588,128.753453 L189.16624,128.033248 Z" id="Shape" fill="#DFE6F5" fill-rule="nonzero"></path>
                <ellipse id="Oval" fill="#FFFFFF" fill-rule="nonzero" cx="224.346547" cy="133.800512" rx="1" ry="1.15345269"></ellipse>
                <path d="M221.462916,152.5798 C221.462916,152.5798 206.979635,147.695686 203.075051,151.236669 C203.075051,151.236669 202.439422,152.335595 205.072745,152.5798 L215.696845,153.353118 C215.696845,153.353118 220.055449,153.719427 221.462916,152.5798 Z" id="Shape" fill="#D1D9EC" fill-rule="nonzero"></path>
                <path d="M222.103004,150.850519 C219.259802,149.828789 210.775329,147.235166 205.314578,150.10387 C205.314578,150.10387 211.316891,149.51441 214.656524,151.204195 C217.951027,152.854682 222.464045,152.068736 222.464045,152.068736 L222.509175,151.950844 C222.734826,151.557871 222.599436,151.086303 222.148134,150.850519 C222.148134,150.850519 222.148134,150.850519 222.103004,150.850519 Z" id="Shape" fill="#DFE6F5" fill-rule="nonzero"></path>
                <path d="M185.730348,78.8891223 L189.755199,135.74361 C189.847725,137.237398 191.143079,138.414322 192.71601,138.414322 L193.780051,138.414322 C193.039849,137.735328 192.392171,136.920534 191.883282,136.060474 C191.883282,136.060474 187.904693,78.9343886 187.627117,77.5311329 C187.488329,76.9879372 187.210753,76.535274 186.840652,76.1278772 C186.054186,76.8068719 185.59156,77.8479971 185.730348,78.8891223 Z" id="Shape" fill="#DFE6F5" fill-rule="nonzero"></path>
                <path d="M185.730348,78.8891223 L189.755199,135.74361 C189.847725,137.237398 191.143079,138.414322 192.71601,138.414322 L193.780051,138.414322 C193.039849,137.735328 192.392171,136.920534 191.883282,136.060474 C191.883282,136.060474 187.904693,78.9343886 187.627117,77.5311329 C187.488329,76.9879372 187.210753,76.535274 186.840652,76.1278772 C186.054186,76.8068719 185.59156,77.8479971 185.730348,78.8891223 Z" id="Shape" fill="#000000" fill-rule="nonzero" opacity="0.1"></path>
                <path d="M178.783384,94.8739691 C183.071834,93.9114558 193.154253,90.9322481 193.154253,90.9322481 L194.933504,90.5655764 C194.887882,84.2863231 194.614151,78.1904057 194.477286,76.1278772 L194.431664,76.1278772 C194.431664,76.1278772 185.854764,78.9237491 183.801783,80.43627 C181.748802,81.9487909 175.40737,81.5362852 175.40737,81.5362852 C175.40737,81.5362852 165.55306,82.0862927 157.341135,91.2530858 C149.129209,100.511547 174.494934,95.7906484 178.783384,94.8739691 Z" id="Shape" fill="#000000" fill-rule="nonzero" opacity="0.1"></path>
                <path d="M220.014974,77.9315194 C221.233594,78.5225479 221.820337,79.9773872 221.233594,81.2049079 C221.098192,81.523154 220.872522,81.8414001 220.556583,82.0687188 C218.29988,83.9327317 215.005094,86.2059181 211.890843,86.4787005 C206.700426,87.0242653 194.108022,89.5702341 192.844269,89.7975528 C192.799135,89.7975528 192.708867,89.8430165 192.663732,89.8430165 C191.625649,90.1612626 182.553702,92.8436227 178.536771,93.7074335 C174.294169,94.6621719 149.19963,99.2994723 157.323761,90.2067264 C164.816016,81.8414001 173.662292,80.6593431 175.016314,80.5684157 C175.106582,80.5684157 175.241984,80.5684157 175.332252,80.5684157 C176.280068,80.6138794 181.651021,80.7957343 183.501518,79.4318224 C184.449333,78.840794 185.487417,78.2952292 186.570634,77.8860556 C190.587566,76.2038976 194.785033,74.9763769 199.027635,74.2489573 L207.693375,72.7031905 C208.18985,72.612263 208.686325,72.7031905 209.137665,72.8850454 L220.014974,77.9315194 Z" id="Shape" fill="#E8C5B8" fill-rule="nonzero"></path>
                <path d="M202.124403,53.4191211 L206.159817,53.0588235 C206.159817,53.0588235 210.553934,56.346539 213.871941,56.346539 C217.189948,56.346539 219.207655,60.5800356 219.207655,60.5800356 C219.207655,60.5800356 224.722721,63.1471559 226.561076,63.5074535 C228.399431,63.8677511 231.493249,65.7142762 230.59649,66.4348714 C229.699731,67.1554665 230.775842,68.8218429 232.434845,70.1279216 C234.093849,71.4340004 236.649611,78.0544685 234.452552,78.9552125 C232.210656,79.8559564 226.202373,81.7024815 224.588207,82.6482627 C222.974042,83.5490067 220.911497,82.6482627 220.911497,82.6482627 C220.911497,82.6482627 211.181665,69.9477728 206.249493,72.3347443 C201.31732,74.7217158 194.501954,74.7217158 194.501954,74.7217158 L189.16624,63.5074535 L202.124403,53.4191211 Z" id="Shape" fill="#67647E" fill-rule="nonzero"></path>
                <path d="M444.829085,286.111628 C444.376294,286.743811 444.014062,287.421149 443.742388,288.143644 C443.65183,288.324267 443.606551,288.504891 443.561272,288.730671 C443.425434,288.685515 443.334876,288.640359 443.199039,288.595203 C442.655691,288.459735 442.067063,288.414579 441.523715,288.459735 C441.523715,288.233956 441.523715,288.008176 441.568994,287.782397 C441.614273,285.298822 441.342598,281.821818 438.942809,283.266807 C436.633578,284.66664 438.263623,287.059902 439.757832,288.550047 L440.120064,288.911294 C438.761693,289.859568 438.535298,292.117363 438.308902,294.420314 C438.082507,296.723265 436.090229,299.297151 434.777137,300.74214 C434.6413,300.877608 434.505463,301.013075 434.414904,301.148543 C433.328207,300.290581 431.969836,299.929334 430.611465,300.155113 L430.430348,299.522931 C429.38893,295.684679 427.170257,289.046762 424.362956,287.601773 C424.498793,287.466305 424.589352,287.285682 424.725189,287.150214 C425.902444,285.569758 427.260815,283.266807 425.268537,282.67978 C423.276259,282.092753 423.095143,284.711795 423.23098,286.653499 C423.23098,286.879279 423.23098,287.150214 423.276259,287.330838 C422.461236,287.375994 421.736772,287.737241 421.193423,288.324267 L420.87647,287.96302 C419.246424,286.066472 416.303286,283.041027 415.397705,285.343978 C414.582683,287.466305 417.163588,290.220815 419.020029,291.801272 L419.155866,291.891584 C417.933332,296.858733 423.276259,300.922764 426.174118,302.683844 L426.536351,302.909623 C422.551795,307.605837 420.106726,316.366082 420.106726,316.366082 L431.29065,318.352941 C431.29065,318.352941 438.716414,311.985959 437.765554,305.980224 L437.856112,305.980224 C445.236596,304.49008 446.9572,296.632953 445.779945,291.981895 L445.915782,291.93674 C447.274153,291.394869 448.451408,290.491751 449.356989,289.362853 C451.303988,286.518031 446.9572,283.266807 444.829085,286.111628 Z" id="Shape" fill="#00BA42" fill-rule="nonzero"></path>
                <path d="M444.829085,286.111628 C444.376294,286.743811 444.014062,287.421149 443.742388,288.143644 C443.65183,288.324267 443.606551,288.504891 443.561272,288.730671 C443.425434,288.685515 443.334876,288.640359 443.199039,288.595203 C442.655691,288.459735 442.067063,288.414579 441.523715,288.459735 C441.523715,288.233956 441.523715,288.008176 441.568994,287.782397 C441.614273,285.298822 441.342598,281.821818 438.942809,283.266807 C436.633578,284.66664 438.263623,287.059902 439.757832,288.550047 L440.120064,288.911294 C438.761693,289.859568 438.535298,292.117363 438.308902,294.420314 C438.082507,296.723265 436.090229,299.297151 434.777137,300.74214 C434.6413,300.877608 434.505463,301.013075 434.414904,301.148543 C433.328207,300.290581 431.969836,299.929334 430.611465,300.155113 L430.430348,299.522931 C429.38893,295.684679 427.170257,289.046762 424.362956,287.601773 C424.498793,287.466305 424.589352,287.285682 424.725189,287.150214 C425.902444,285.569758 427.260815,283.266807 425.268537,282.67978 C423.276259,282.092753 423.095143,284.711795 423.23098,286.653499 C423.23098,286.879279 423.23098,287.150214 423.276259,287.330838 C422.461236,287.375994 421.736772,287.737241 421.193423,288.324267 L420.87647,287.96302 C419.246424,286.066472 416.303286,283.041027 415.397705,285.343978 C414.582683,287.466305 417.163588,290.220815 419.020029,291.801272 L419.155866,291.891584 C417.933332,296.858733 423.276259,300.922764 426.174118,302.683844 L426.536351,302.909623 C422.551795,307.605837 420.106726,316.366082 420.106726,316.366082 L431.29065,318.352941 C431.29065,318.352941 438.716414,311.985959 437.765554,305.980224 L437.856112,305.980224 C445.236596,304.49008 446.9572,296.632953 445.779945,291.981895 L445.915782,291.93674 C447.274153,291.394869 448.451408,290.491751 449.356989,289.362853 C451.303988,286.518031 446.9572,283.266807 444.829085,286.111628 Z" id="Shape" fill="#000000" fill-rule="nonzero" opacity="0.1"></path>
                <path d="M423.317136,288.25282 L421.964464,291.823529 C421.964464,291.823529 421.218163,291.355937 420.285287,290.590785 C418.419533,289.102989 415.714191,286.509974 416.55378,284.512078 C417.486657,282.386656 420.518506,285.192213 422.197684,286.977567 C422.897341,287.700211 423.317136,288.25282 423.317136,288.25282 Z" id="Shape" fill="#46FF96" fill-rule="nonzero"></path>
                <path d="M426.168876,286.941362 C425.711312,287.458384 425.253749,287.93232 424.745346,288.363171 C424.592824,287.716894 424.541984,287.070617 424.491144,286.467425 C424.389463,284.614765 424.592824,282.115827 426.77896,282.675934 C429.015936,283.23604 427.541565,285.433382 426.168876,286.941362 Z" id="Shape" fill="#46FF96" fill-rule="nonzero"></path>
                <path d="M441.760201,287.311794 C441.718883,288.546499 441.594927,289.516624 441.594927,289.516624 C441.057785,289.075658 440.561961,288.590595 440.107457,288.105533 C438.743942,286.606249 437.256472,284.313225 439.363722,282.946231 C441.553608,281.491043 441.842838,284.886481 441.760201,287.311794 Z" id="Shape" fill="#46FF96" fill-rule="nonzero"></path>
                <path d="M450.447607,289.016608 C449.504152,290.079836 448.27766,290.930418 446.862477,291.440767 C446.485095,291.610884 446.06054,291.738471 445.683158,291.823529 L444.079284,289.782132 C444.267975,289.101666 444.456666,288.463729 444.739703,287.825793 C445.022739,287.145327 445.400121,286.50739 445.871849,285.911982 C448.041796,283.275177 452.570381,286.337274 450.447607,289.016608 Z" id="Shape" fill="#46FF96" fill-rule="nonzero"></path>
                <path d="M422.039465,287.209719 C422.784773,287.897743 423.317136,288.423879 423.317136,288.423879 L421.773283,291.823529 C421.773283,291.823529 420.921503,291.378337 419.856777,290.649841 C420.069723,289.557096 420.708558,288.504823 421.560338,287.654911 C421.773283,287.493023 421.932992,287.371607 422.039465,287.209719 Z" id="Shape" fill="#000000" fill-rule="nonzero" opacity="0.1"></path>
                <path d="M425.624041,286.632992 C425.309463,287.262148 424.994885,287.838875 424.645354,288.363171 C424.540494,287.576726 424.505541,286.790281 424.470588,286.056266 C424.890026,286.056266 425.309463,286.265985 425.624041,286.632992 Z" id="Shape" fill="#000000" fill-rule="nonzero" opacity="0.1"></path>
                <path d="M432.544757,301.981805 L429.155928,303.358056 C428.544056,303.04729 427.932185,302.736523 427.36738,302.381362 C423.83735,300.339182 416.683156,295.144942 421.436929,289.018403 C426.190703,282.891864 430.191404,293.857481 431.791684,299.229302 C432.309422,300.871924 432.544757,301.981805 432.544757,301.981805 Z" id="Shape" fill="#46FF96" fill-rule="nonzero"></path>
                <path d="M440.618926,288.040205 C441.195652,287.532685 442.060742,287.255857 442.925831,287.209719 C442.868159,288.501586 442.695141,289.516624 442.695141,289.516624 C441.945396,289.055243 441.253325,288.547724 440.618926,288.040205 Z" id="Shape" fill="#000000" fill-rule="nonzero" opacity="0.1"></path>
                <path d="M446.386189,291.381782 C446.073389,291.578114 445.721488,291.725363 445.408687,291.823529 L444.079284,289.467541 C444.235684,288.682211 444.392085,287.945965 444.626685,287.209719 C445.486887,287.896882 446.112489,289.418458 446.386189,291.381782 Z" id="Shape" fill="#000000" fill-rule="nonzero" opacity="0.1"></path>
                <path d="M439.162224,306.432545 C438.978216,306.478799 438.794209,306.525054 438.610202,306.525054 C427.569778,308.190205 434.976062,302.223413 434.976062,302.223413 C434.976062,302.223413 435.43608,301.760871 436.126107,301.020804 C437.460158,299.586924 439.484236,296.950434 439.714245,294.545216 C440.082259,290.937388 440.450273,287.560832 444.682436,288.53217 C448.822595,289.549762 449.604625,304.351106 439.162224,306.432545 Z" id="Shape" fill="#46FF96" fill-rule="nonzero"></path>
                <rect id="Rectangle-path" fill="#D4DFEC" fill-rule="nonzero" x="417.549872" y="332.194373" width="20.7621483" height="5.76726343"></rect>
                <rect id="Rectangle-path" fill="#D4DFEC" fill-rule="nonzero" x="414.089514" y="314.892583" width="27.6828645" height="19.6086957"></rect>
                <rect id="Rectangle-path" fill="#000000" fill-rule="nonzero" opacity="0.1" x="417.549872" y="332.194373" width="20.7621483" height="5.76726343"></rect>
                <rect id="Rectangle-path" fill="#000000" fill-rule="nonzero" opacity="0.1" x="414.089514" y="314.892583" width="27.6828645" height="19.6086957"></rect>
                <rect id="Rectangle-path" fill="#D4DFEC" fill-rule="nonzero" x="418.703325" y="332.194373" width="20.7621483" height="5.76726343"></rect>
                <path d="M430.720205,298.744246 C431.139642,300.54965 431.391304,301.803403 431.391304,301.803403 L428.371355,303.358056 C427.826087,303.007005 427.280818,302.655955 426.777494,302.254754 C427.951918,300.4995 429.294118,299.145446 430.720205,298.744246 Z" id="Shape" fill="#000000" fill-rule="nonzero" opacity="0.1"></path>
                <path d="M439.465473,305.281112 C439.273034,305.327124 439.080595,305.373137 438.888155,305.373137 C427.341796,307.029572 435.087479,301.094012 435.087479,301.094012 C435.087479,301.094012 435.568577,300.633892 436.290224,299.897698 C438.455167,301.554133 439.321144,303.394617 439.465473,305.281112 Z" id="Shape" fill="#000000" fill-rule="nonzero" opacity="0.1"></path>
                <path d="M421.01023,316.354027 C421.01023,316.354027 426.986716,294.456833 435.309525,301.180453 C443.676605,307.949502 431.900715,318.352941 431.900715,318.352941 L421.01023,316.354027 Z" id="Shape" fill="#46FF96" fill-rule="nonzero"></path>
                <circle id="Oval" fill="#000000" fill-rule="nonzero" opacity="0.1" cx="423.893862" cy="292.400256" r="1"></circle>
                <circle id="Oval" fill="#000000" fill-rule="nonzero" opacity="0.1" cx="423.893862" cy="294.707161" r="1"></circle>
                <circle id="Oval" fill="#000000" fill-rule="nonzero" opacity="0.1" cx="443.502558" cy="292.400256" r="1"></circle>
                <circle id="Oval" fill="#000000" fill-rule="nonzero" opacity="0.1" cx="427.35422" cy="308.548593" r="1"></circle>
                <circle id="Oval" fill="#000000" fill-rule="nonzero" opacity="0.1" cx="442.349105" cy="298.167519" r="1"></circle>
                <circle id="Oval" fill="#000000" fill-rule="nonzero" opacity="0.1" cx="435.428389" cy="305.088235" r="1"></circle>
                <circle id="Oval" fill="#000000" fill-rule="nonzero" opacity="0.1" cx="426.200767" cy="293.553708" r="1"></circle>
                <circle id="Oval" fill="#000000" fill-rule="nonzero" opacity="0.1" cx="442.349105" cy="294.707161" r="1"></circle>
                <circle id="Oval" fill="#000000" fill-rule="nonzero" opacity="0.1" cx="440.042199" cy="299.320972" r="1"></circle>
                <circle id="Oval" fill="#000000" fill-rule="nonzero" opacity="0.1" cx="431.968031" cy="308.548593" r="1"></circle>
                <circle id="Oval" fill="#000000" fill-rule="nonzero" opacity="0.1" cx="430.814578" cy="305.088235" r="1"></circle>
                <circle id="Oval" fill="#000000" fill-rule="nonzero" opacity="0.1" cx="427.35422" cy="297.014066" r="1"></circle>
                <rect id="Rectangle-path" fill="#000000" fill-rule="nonzero" opacity="0.1" x="418.703325" y="332.194373" width="20.7621483" height="2.30690537"></rect>
                <rect id="Rectangle-path" fill="#D4DFEC" fill-rule="nonzero" x="415.242967" y="314.892583" width="27.6828645" height="19.6086957"></rect>
                <circle id="Oval" fill="#000000" fill-rule="nonzero" opacity="0.1" cx="433.121483" cy="310.855499" r="1"></circle>
                <circle id="Oval" fill="#000000" fill-rule="nonzero" opacity="0.1" cx="429.661125" cy="312.008951" r="1"></circle>
            </g>
        </g>
    </g>
</svg>