<?xml version="1.0" encoding="UTF-8"?>
<svg width="449px" height="384px" viewBox="0 0 449 384" version="1.1" xmlns="http://www.w3.org/2000/svg" xmlns:xlink="http://www.w3.org/1999/xlink">
    <!-- Generator: Sketch 49.1 (51147) - http://www.bohemiancoding.com/sketch -->
    <title>undraw_Specs_h9jt</title>
    <desc>Created with Sketch.</desc>
    <defs>
        <linearGradient x1="62.5740599%" y1="93.9366424%" x2="37.4178583%" y2="6.1144625%" id="linearGradient-1">
            <stop stop-color="#808080" stop-opacity="0.25" offset="0%"></stop>
            <stop stop-color="#808080" stop-opacity="0.12" offset="54%"></stop>
            <stop stop-color="#808080" stop-opacity="0.1" offset="100%"></stop>
        </linearGradient>
        <linearGradient x1="65.7038891%" y1="88.1351976%" x2="34.2913664%" y2="11.8653341%" id="linearGradient-2">
            <stop stop-color="#808080" stop-opacity="0.25" offset="0%"></stop>
            <stop stop-color="#808080" stop-opacity="0.12" offset="54%"></stop>
            <stop stop-color="#808080" stop-opacity="0.1" offset="100%"></stop>
        </linearGradient>
        <linearGradient x1="49.9998211%" y1="100.021888%" x2="49.9998211%" y2="-0.00429184549%" id="linearGradient-3">
            <stop stop-color="#808080" stop-opacity="0.25" offset="0%"></stop>
            <stop stop-color="#808080" stop-opacity="0.12" offset="54%"></stop>
            <stop stop-color="#808080" stop-opacity="0.1" offset="100%"></stop>
        </linearGradient>
        <linearGradient x1="50%" y1="100.06993%" x2="50%" y2="0.0699300699%" id="linearGradient-4">
            <stop stop-color="#808080" stop-opacity="0.25" offset="0%"></stop>
            <stop stop-color="#808080" stop-opacity="0.12" offset="54%"></stop>
            <stop stop-color="#808080" stop-opacity="0.1" offset="100%"></stop>
        </linearGradient>
        <linearGradient x1="7.07879353%" y1="93.8749734%" x2="92.8580486%" y2="6.14973821%" id="linearGradient-5">
            <stop stop-color="#808080" stop-opacity="0.25" offset="0%"></stop>
            <stop stop-color="#808080" stop-opacity="0.12" offset="54%"></stop>
            <stop stop-color="#808080" stop-opacity="0.1" offset="100%"></stop>
        </linearGradient>
        <linearGradient x1="48.5141085%" y1="99.8599879%" x2="51.6143151%" y2="0.124046598%" id="linearGradient-6">
            <stop stop-color="#808080" stop-opacity="0.25" offset="0%"></stop>
            <stop stop-color="#808080" stop-opacity="0.12" offset="54%"></stop>
            <stop stop-color="#808080" stop-opacity="0.1" offset="100%"></stop>
        </linearGradient>
        <linearGradient x1="75.7691612%" y1="95.46222%" x2="24.2208797%" y2="4.5342878%" id="linearGradient-7">
            <stop stop-color="#808080" stop-opacity="0.25" offset="0%"></stop>
            <stop stop-color="#808080" stop-opacity="0.12" offset="54%"></stop>
            <stop stop-color="#808080" stop-opacity="0.1" offset="100%"></stop>
        </linearGradient>
        <linearGradient x1="82.3937797%" y1="92.5979824%" x2="17.5883876%" y2="7.39297272%" id="linearGradient-8">
            <stop stop-color="#808080" stop-opacity="0.25" offset="0%"></stop>
            <stop stop-color="#808080" stop-opacity="0.12" offset="54%"></stop>
            <stop stop-color="#808080" stop-opacity="0.1" offset="100%"></stop>
        </linearGradient>
        <linearGradient x1="85.4108795%" y1="90.696177%" x2="14.5991176%" y2="9.29437882%" id="linearGradient-9">
            <stop stop-color="#808080" stop-opacity="0.25" offset="0%"></stop>
            <stop stop-color="#808080" stop-opacity="0.12" offset="54%"></stop>
            <stop stop-color="#808080" stop-opacity="0.1" offset="100%"></stop>
        </linearGradient>
        <linearGradient x1="50%" y1="100.019048%" x2="50%" y2="0.019047619%" id="linearGradient-10">
            <stop stop-color="#808080" stop-opacity="0.25" offset="0%"></stop>
            <stop stop-color="#808080" stop-opacity="0.12" offset="54%"></stop>
            <stop stop-color="#808080" stop-opacity="0.1" offset="100%"></stop>
        </linearGradient>
        <linearGradient x1="49.968011%" y1="100.05182%" x2="49.968011%" y2="-0.0248967526%" id="linearGradient-11">
            <stop stop-color="#808080" stop-opacity="0.25" offset="0%"></stop>
            <stop stop-color="#808080" stop-opacity="0.12" offset="54%"></stop>
            <stop stop-color="#808080" stop-opacity="0.1" offset="100%"></stop>
        </linearGradient>
    </defs>
    <g id="desktop" stroke="none" stroke-width="1" fill="none" fill-rule="evenodd">
        <g id="Landing-skills" transform="translate(-523.000000, -105.000000)" fill-rule="nonzero">
            <g id="undraw_Specs_h9jt" transform="translate(523.000000, 105.000000)">
                <path d="M105.264217,32.4167763 L197.136684,11.6134868 C200.775197,10.8055921 204.413711,13.0777961 205.272804,16.7133224 L236.705518,155.519737 C237.514077,159.155263 235.240006,162.790789 231.601492,163.649178 L139.729026,184.401974 C136.090512,185.209868 132.451999,182.937664 131.592905,179.302138 L100.160191,40.5462171 C99.3516329,36.8601974 101.625704,33.2246711 105.264217,32.4167763 Z" id="Shape" fill="url(#linearGradient-1)"></path>
                <path d="M106.477055,34.0830592 L195.721706,13.8856908 C199.36022,13.0777961 202.998733,15.35 203.857827,18.9855263 L234.532517,154.509868 C235.341075,158.145395 233.067005,161.780921 229.428491,162.639309 L140.18384,182.836678 C136.545327,183.644572 132.906813,181.372368 132.04772,177.736842 L101.373029,42.1620066 C100.513936,38.5264803 102.838542,34.8909539 106.477055,34.0830592 Z" id="Shape" fill="#46FF96"></path>
                <polygon id="Shape" fill="url(#linearGradient-2)" points="17.1818694 174.60625 189.354307 109.671711 268.188767 318.5125 96.0163288 383.447039"></polygon>
                <rect id="Rectangle-path" fill="#FFFFFF" transform="translate(142.560552, 246.163698) rotate(-20.671390) translate(-142.560552, -246.163698) " x="52.2061052" y="136.671104" width="180.708895" height="218.985189"></rect>
                <rect id="Rectangle-path" fill="#46FF96" transform="translate(148.264039, 303.848595) rotate(-20.671390) translate(-148.264039, -303.848595) " x="107.685391" y="302.182348" width="81.1572944" height="3.33249307"></rect>
                <rect id="Rectangle-path" fill="#46FF96" transform="translate(179.603869, 313.497110) rotate(-20.671390) translate(-179.603869, -313.497110) " x="113.101379" y="311.830863" width="133.004981" height="3.33249307"></rect>
                <rect id="Rectangle-path" fill="#46FF96" transform="translate(218.680777, 277.297381) rotate(-20.671390) translate(-218.680777, -277.297381) " x="201.524549" y="275.631135" width="34.3124551" height="3.33249307"></rect>
                <rect id="Rectangle-path" fill="#46FF96" transform="translate(129.855273, 321.534395) rotate(-20.671390) translate(-129.855273, -321.534395) " x="112.699045" y="319.868148" width="34.3124551" height="3.33249307"></rect>
                <rect id="Rectangle-path" fill="#46FF96" transform="translate(176.038844, 304.113963) rotate(-20.671390) translate(-176.038844, -304.113963) " x="158.882616" y="302.447716" width="34.3124551" height="3.33249307"></rect>
                <rect id="Rectangle-path" fill="#46FF96" transform="translate(222.221505, 286.691965) rotate(-20.671390) translate(-222.221505, -286.691965) " x="205.065278" y="285.025719" width="34.3124551" height="3.33249307"></rect>
                <rect id="Rectangle-path" fill="#46FF96" transform="translate(128.858259, 210.445410) rotate(-20.671390) translate(-128.858259, -210.445410) " x="78.6781887" y="192.066206" width="100.360141" height="36.7584084"></rect>
                <path d="M299.469876,311.443421 C299.570946,310.736513 299.672016,310.080099 299.672016,309.373191 C299.672016,302.809046 294.36585,297.456743 287.745777,297.456743 C281.176239,297.456743 275.819538,302.758553 275.819538,309.373191 C275.819538,313.059211 277.537725,316.543257 280.418215,318.764967 C280.317145,319.471875 280.216075,320.128289 280.216075,320.835197 C280.216075,327.399342 285.572776,332.751645 292.142314,332.751645 C298.711852,332.751645 304.068553,327.399342 304.068553,320.835197 C304.068553,317.199671 302.400901,313.715625 299.469876,311.443421 Z" id="Shape" fill="url(#linearGradient-3)"></path>
                <ellipse id="Oval" fill="#46FF96" cx="291.940175" cy="320.330263" rx="10.8144707" ry="10.8055921"></ellipse>
                <ellipse id="Oval" fill="url(#linearGradient-4)" cx="307.201717" cy="345.576974" rx="7.22649212" ry="7.22055921"></ellipse>
                <ellipse id="Oval" fill="#46FF96" cx="307.201717" cy="345.576974" rx="6.41793356" ry="6.41266447"></ellipse>
                <ellipse id="Oval" fill="#46FF96" cx="287.947917" cy="309.878125" rx="10.8144707" ry="10.8055921"></ellipse>
                <g id="Group" opacity="0.5" transform="translate(334.035755, 0.000000)" fill="#47E6B1">
                    <rect id="Rectangle-path" x="3.53744369" y="0" width="1.5160473" height="8.58388158"></rect>
                    <rect id="Rectangle-path" x="0" y="3.53453947" width="8.59093468" height="1.51480263"></rect>
                </g>
                <g id="Group" opacity="0.5" transform="translate(84.393300, 68.166118)" fill="#47E6B1">
                    <rect id="Rectangle-path" x="3.53744369" y="0" width="1.5160473" height="8.58388158"></rect>
                    <rect id="Rectangle-path" x="0" y="3.53453947" width="8.59093468" height="1.51480263"></rect>
                </g>
                <g id="Group" opacity="0.5" transform="translate(199.107545, 362.037829)" fill="#47E6B1">
                    <rect id="Rectangle-path" x="3.53744369" y="0" width="1.5160473" height="8.58388158"></rect>
                    <rect id="Rectangle-path" x="0" y="3.53453947" width="8.59093468" height="1.51480263"></rect>
                </g>
                <path d="M399.175253,297.355757 C398.31616,297.002303 397.861346,295.992434 398.164555,295.134046 C398.164555,295.083553 398.21509,294.982566 398.21509,294.932072 C398.265625,294.427138 397.861346,293.972697 397.355997,293.922204 C397.052787,293.922204 396.749578,294.023191 396.547438,294.275658 C396.496903,294.326151 396.496903,294.376645 396.446368,294.477632 C396.042089,295.33602 395.081926,295.790461 394.172297,295.4875 C394.121762,295.4875 394.020693,295.437007 393.970158,295.437007 C393.464809,295.386513 393.009994,295.790461 392.959459,296.295395 C392.959459,296.598355 393.060529,296.901316 393.313204,297.103289 C393.363739,297.153783 393.414274,297.204276 393.515343,297.204276 C394.374437,297.55773 394.829251,298.567599 394.526042,299.425987 C394.475507,299.47648 394.475507,299.577467 394.475507,299.627961 C394.424972,300.132895 394.829251,300.587336 395.3346,300.637829 C395.63781,300.637829 395.941019,300.536842 396.143159,300.284375 C396.193694,300.233882 396.193694,300.183388 396.244229,300.082401 C396.648508,299.224013 397.608671,298.769572 398.467765,299.072533 C398.5183,299.072533 398.619369,299.123026 398.669904,299.123026 C399.175253,299.17352 399.630068,298.769572 399.680602,298.264638 C399.680602,297.961678 399.579533,297.658717 399.326858,297.456743 C399.276323,297.456743 399.225788,297.40625 399.175253,297.355757 Z" id="Shape" fill="#4D8AF0" opacity="0.5"></path>
                <path d="M360.768722,348.354112 C359.909628,348.000658 359.454814,346.990789 359.758024,346.132401 C359.758024,346.081908 359.808559,345.980921 359.808559,345.930428 C359.859093,345.425493 359.454814,344.971053 358.949465,344.920559 C358.646256,344.920559 358.343046,345.021546 358.140907,345.274013 C358.090372,345.324507 358.090372,345.375 358.039837,345.475987 C357.635557,346.334375 356.675394,346.788816 355.765766,346.485855 C355.715231,346.485855 355.614161,346.435362 355.563626,346.435362 C355.058277,346.384868 354.603463,346.788816 354.552928,347.29375 C354.552928,347.596711 354.653998,347.899671 354.906672,348.101645 C354.957207,348.152138 355.007742,348.202632 355.108812,348.202632 C355.967905,348.556086 356.42272,349.565954 356.11951,350.424342 C356.068975,350.474836 356.068975,350.575822 356.068975,350.626316 C356.01844,351.13125 356.42272,351.585691 356.928069,351.636184 C357.231278,351.636184 357.534488,351.535197 357.736627,351.28273 C357.787162,351.232237 357.787162,351.181743 357.837697,351.080757 C358.241976,350.222368 359.20214,349.767928 360.061233,350.070888 C360.111768,350.070888 360.212838,350.121382 360.263373,350.121382 C360.768722,350.171875 361.223536,349.767928 361.274071,349.262993 C361.274071,348.960033 361.173001,348.657072 360.920327,348.455099 C360.869792,348.455099 360.819257,348.404605 360.768722,348.354112 Z" id="Shape" fill="#4D8AF0" opacity="0.5"></path>
                <path d="M48.9683277,324.11727 C48.1092342,323.763816 47.65442,322.753947 47.9070946,321.895559 C47.9070946,321.845066 47.9576295,321.744079 47.9576295,321.693586 C48.0081644,321.188651 47.6038851,320.734211 47.098536,320.683717 C46.7953266,320.683717 46.4921171,320.784704 46.2899775,321.037171 C46.2394426,321.087664 46.2394426,321.138158 46.1889077,321.239145 C45.7846284,322.097533 44.8244651,322.551974 43.9653716,322.249013 C43.9148367,322.249013 43.8137669,322.19852 43.763232,322.19852 C43.2578829,322.148026 42.8030687,322.551974 42.7525338,323.056908 C42.7525338,323.359868 42.8536036,323.662829 43.1062782,323.864803 C43.1568131,323.915296 43.207348,323.965789 43.3084178,323.965789 C44.1675113,324.369737 44.5717905,325.329112 44.319116,326.1875 C44.2685811,326.237993 44.2685811,326.33898 44.2685811,326.389474 C44.2180462,326.894408 44.6223255,327.348849 45.1276745,327.399342 C45.430884,327.399342 45.7340935,327.298355 45.9362331,327.045888 C45.986768,326.995395 45.986768,326.944901 46.0373029,326.843914 C46.4415822,325.985526 47.4017455,325.531086 48.260839,325.834046 C48.3113739,325.834046 48.4124437,325.884539 48.4629786,325.884539 C48.9683277,325.935033 49.4231419,325.531086 49.4736768,325.026151 C49.4736768,324.723191 49.372607,324.42023 49.1199324,324.218257 C49.0693975,324.218257 49.0188626,324.167763 48.9683277,324.11727 Z" id="Shape" fill="#4D8AF0" opacity="0.5"></path>
                <ellipse id="Oval" fill="#F55F44" opacity="0.5" cx="249.137106" cy="28.2763158" rx="3.03209459" ry="3.02960526"></ellipse>
                <ellipse id="Oval" fill="#4D8AF0" opacity="0.5" cx="3.03209459" cy="36.8601974" rx="3.03209459" ry="3.02960526"></ellipse>
                <ellipse id="Oval" fill="#47E6B1" opacity="0.5" cx="426.009291" cy="207.527961" rx="3.03209459" ry="3.02960526"></ellipse>
                <ellipse id="Oval" fill="#F55F44" opacity="0.5" cx="29.8155968" cy="151.985197" rx="3.03209459" ry="3.02960526"></ellipse>
                <g id="Group" opacity="0.5" transform="translate(340.605293, 0.000000)" fill="url(#linearGradient-5)">
                    <path d="M0.303209459,145.017105 L25.4190597,2.77713816 C25.7222691,1.06036184 27.3899212,-0.100986842 29.1081081,0.201973684 C29.1081081,0.201973684 29.1081081,0.201973684 29.1081081,0.201973684 L105.213682,13.6332237 C106.931869,13.9361842 108.094172,15.6024671 107.790963,17.3192434 L82.6245777,159.559211 C82.3213682,161.275987 80.6537162,162.437336 78.9355293,162.134375 L2.82995495,148.703125 C1.11176802,148.400164 9.54791801e-15,146.733882 0.303209459,145.017105 Z" id="Shape"></path>
                </g>
                <path d="M374.109938,3.02960526 L440.664414,14.7440789 C444.403998,15.4004934 446.930743,18.9855263 446.273789,22.7220395 L423.128801,153.65148 C422.471847,157.387993 418.883868,159.912664 415.144285,159.25625 L348.589809,147.491283 C344.850225,146.834868 342.32348,143.249836 342.980434,139.513322 L366.125422,8.58388158 C366.782376,4.84736842 370.370355,2.37319079 374.109938,3.02960526 Z" id="Shape" fill="#FFFFFF"></path>
                <path d="M426.918919,16.0569079 C425.908221,19.1370066 422.724521,21.0052632 419.540822,20.4498355 L391.847691,15.5519737 C388.663992,14.9460526 386.339386,12.1689145 386.440456,8.88684211 L371.785332,6.31167763 C370.11768,6.00871711 368.500563,7.11957237 368.197354,8.83634868 C368.197354,8.83634868 368.197354,8.83634868 368.197354,8.83634868 L345.00183,140.018257 C344.69862,141.684539 345.810389,143.300329 347.528575,143.603289 L417.519426,155.974178 C419.187078,156.277138 420.804195,155.166283 421.107404,153.449507 C421.107404,153.449507 421.107404,153.449507 421.107404,153.449507 L444.302928,22.2675987 C444.606137,20.6013158 443.494369,18.9855263 441.776182,18.6825658 C441.776182,18.6825658 441.776182,18.6825658 441.776182,18.6825658 L426.918919,16.0569079 Z" id="Shape" fill="#E0E0E0"></path>
                <path d="M397.355997,12.7748355 L414.133587,15.5014803 C414.436796,15.5519737 414.638936,15.8549342 414.588401,16.1578947 C414.537866,16.4608553 414.234657,16.6628289 413.931447,16.6123355 L397.153857,13.8856908 C396.850648,13.8351974 396.648508,13.5322368 396.699043,13.2292763 C396.749578,12.9263158 397.052787,12.7243421 397.355997,12.7748355 Z" id="Shape" fill="#DBDBDB"></path>
                <ellipse id="Oval" fill="#DBDBDB" cx="418.429054" cy="16.6628289" rx="1" ry="1"></ellipse>
                <rect id="Rectangle-path" fill="#FFFFFF" transform="translate(381.803858, 42.849777) rotate(-81.198949) translate(-381.803858, -42.849777) " x="372.202473" y="31.7415123" width="19.2027688" height="22.2165303"></rect>
                <rect id="Rectangle-path" fill="#6C63FF" opacity="0.3" transform="translate(377.580292, 70.285873) rotate(-81.198949) translate(-377.580292, -70.285873) " x="367.978907" y="59.1776075" width="19.2027688" height="22.2165303"></rect>
                <rect id="Rectangle-path" fill="#FFFFFF" transform="translate(373.305271, 97.724089) rotate(-81.198949) translate(-373.305271, -97.724089) " x="363.703886" y="86.6158234" width="19.2027688" height="22.2165303"></rect>
                <rect id="Rectangle-path" fill="#3AD29F" opacity="0.3" transform="translate(369.076752, 125.164476) rotate(-81.198949) translate(-369.076752, -125.164476) " x="359.475368" y="114.05621" width="19.2027688" height="22.2165303"></rect>
                <rect id="Rectangle-path" fill="#FFFFFF" transform="translate(413.403145, 43.648331) rotate(-81.198949) translate(-413.403145, -43.648331) " x="412.392473" y="29.0056178" width="2.02134408" height="29.2854263"></rect>
                <rect id="Rectangle-path" fill="#FFFFFF" transform="translate(412.449935, 49.615421) rotate(-81.198949) translate(-412.449935, -49.615421) " x="411.439263" y="34.9727081" width="2.02134408" height="29.2854263"></rect>
                <rect id="Rectangle-path" fill="#FFFFFF" transform="translate(409.196346, 70.556346) rotate(-81.198949) translate(-409.196346, -70.556346) " x="408.185674" y="55.9136326" width="2.02134408" height="29.2854263"></rect>
                <rect id="Rectangle-path" fill="#FFFFFF" transform="translate(409.496627, 75.307585) rotate(-81.384523) translate(-409.496627, -75.307585) " x="408.485945" y="60.6394826" width="2.02136378" height="29.3362043"></rect>
                <rect id="Rectangle-path" fill="#FFFFFF" transform="translate(405.035797, 97.528396) rotate(-81.198949) translate(-405.035797, -97.528396) " x="404.025125" y="82.8856831" width="2.02134408" height="29.2854263"></rect>
                <rect id="Rectangle-path" fill="#FFFFFF" transform="translate(404.132526, 103.503263) rotate(-81.198949) translate(-404.132526, -103.503263) " x="403.121854" y="88.8605494" width="2.02134408" height="29.2854263"></rect>
                <rect id="Rectangle-path" fill="#FFFFFF" transform="translate(400.876814, 124.490651) rotate(-81.198949) translate(-400.876814, -124.490651) " x="399.866142" y="109.847938" width="2.02134408" height="29.2854263"></rect>
                <rect id="Rectangle-path" fill="#FFFFFF" transform="translate(399.923554, 130.457741) rotate(-81.198949) translate(-399.923554, -130.457741) " x="398.912882" y="115.815028" width="2.02134408" height="29.2854263"></rect>
                <g id="Group" opacity="0.5" transform="translate(284.511543, 90.888158)" fill="url(#linearGradient-6)">
                    <polygon id="Shape" points="0 103.208553 1.0106982 0.252467105 32.4939471 0.555427632 31.4832489 103.511513"></polygon>
                </g>
                <rect id="Rectangle-path" fill="#E0E0E0" transform="translate(301.073392, 142.754046) rotate(-89.440027) translate(-301.073392, -142.754046) " x="250.232845" y="127.782031" width="101.681095" height="29.9440288"></rect>
                <rect id="Rectangle-path" fill="#4D8AF0" transform="translate(301.438258, 104.145571) rotate(-89.440027) translate(-301.438258, -104.145571) " x="290.850689" y="93.5666938" width="21.1751386" height="21.1577539"></rect>
                <rect id="Rectangle-path" fill="#4D8AF0" opacity="0.5" transform="translate(301.183215, 129.694307) rotate(-89.440027) translate(-301.183215, -129.694307) " x="290.595646" y="119.11543" width="21.1751386" height="21.1577539"></rect>
                <rect id="Rectangle-path" fill="#4D8AF0" opacity="0.3" transform="translate(300.938178, 155.243144) rotate(-89.440027) translate(-300.938178, -155.243144) " x="290.350609" y="144.664267" width="21.1751386" height="21.1577539"></rect>
                <g id="Group" opacity="0.5" transform="translate(253.179899, 94.927632)" fill="url(#linearGradient-7)">
                    <polygon id="Shape" points="0.25267455 9.84621711 30.1693412 0.100986842 62.0063345 97.5532895 32.0896678 107.29852"></polygon>
                </g>
                <rect id="Rectangle-path" fill="#F5F5F5" transform="translate(284.482475, 150.635074) rotate(-17.782653) translate(-284.482475, -150.635074) " x="269.499219" y="100.016584" width="29.9665123" height="101.236981"></rect>
                <rect id="Rectangle-path" fill="#FF5252" transform="translate(272.760751, 114.081170) rotate(-17.782653) translate(-272.760751, -114.081170) " x="262.173931" y="103.503041" width="21.1736402" height="21.1562568"></rect>
                <rect id="Rectangle-path" fill="#FF5252" opacity="0.5" transform="translate(280.595471, 138.412404) rotate(-17.782653) translate(-280.595471, -138.412404) " x="270.008651" y="127.834276" width="21.1736402" height="21.1562568"></rect>
                <rect id="Rectangle-path" fill="#FF5252" opacity="0.3" transform="translate(288.367043, 162.707395) rotate(-17.782653) translate(-288.367043, -162.707395) " x="277.780223" y="152.129266" width="21.1736402" height="21.1562568"></rect>
                <g id="Group" opacity="0.5" transform="translate(237.514077, 104.016447)" fill="url(#linearGradient-8)">
                    <polygon id="Shape" points="0 15.5519737 27.4404561 0.0504934211 77.975366 89.3733553 50.5349099 104.874836"></polygon>
                </g>
                <rect id="Rectangle-path" fill="#F5F5F5" transform="translate(276.702606, 156.361346) rotate(-29.479793) translate(-276.702606, -156.361346) " x="261.719509" y="105.743396" width="29.9661926" height="101.2359"></rect>
                <rect id="Rectangle-path" fill="#69F0AE" transform="translate(257.804914, 122.932298) rotate(-29.479793) translate(-257.804914, -122.932298) " x="247.218207" y="112.354282" width="21.1734143" height="21.1560311"></rect>
                <rect id="Rectangle-path" fill="#69F0AE" opacity="0.5" transform="translate(270.374437, 145.152185) rotate(-29.479793) translate(-270.374437, -145.152185) " x="259.78773" y="134.57417" width="21.1734143" height="21.1560311"></rect>
                <rect id="Rectangle-path" fill="#69F0AE" opacity="0.3" transform="translate(282.968778, 167.417340) rotate(-29.479793) translate(-282.968778, -167.417340) " x="272.382071" y="156.839325" width="21.1734143" height="21.1560311"></rect>
                <g id="Group" opacity="0.5" transform="translate(228.417793, 111.590461)" fill="url(#linearGradient-9)">
                    <polygon id="Shape" points="0.25267455 19.0360197 25.5201295 0.252467105 86.8695101 82.50625 61.6020552 101.340296"></polygon>
                </g>
                <rect id="Rectangle-path" fill="#FFFFFF" transform="translate(272.149251, 162.239596) rotate(-36.677381) translate(-272.149251, -162.239596) " x="257.165865" y="111.620668" width="29.9667714" height="101.237856"></rect>
                <rect id="Rectangle-path" fill="#6C63FF" transform="translate(249.202511, 131.426602) rotate(-36.677381) translate(-249.202511, -131.426602) " x="238.615599" y="120.848382" width="21.1738233" height="21.1564397"></rect>
                <rect id="Rectangle-path" fill="#6C63FF" opacity="0.5" transform="translate(264.468945, 151.939574) rotate(-36.677381) translate(-264.468945, -151.939574) " x="253.882034" y="141.361354" width="21.1738233" height="21.1564397"></rect>
                <rect id="Rectangle-path" fill="#6C63FF" opacity="0.3" transform="translate(279.779749, 172.415722) rotate(-36.677381) translate(-279.779749, -172.415722) " x="269.192838" y="161.837502" width="21.1738233" height="21.1564397"></rect>
                <ellipse id="Oval" fill="url(#linearGradient-10)" cx="351.318694" cy="255.446217" rx="53.0616554" ry="53.0180921"></ellipse>
                <ellipse id="Oval" fill="#F5F5F5" cx="351.318694" cy="255.446217" rx="50.5349099" ry="50.4934211"></ellipse>
                <g id="Group" opacity="0.5" transform="translate(309.273649, 223.685855)" fill="url(#linearGradient-11)">
                    <path d="M43.4600225,0.252467105 C26.935107,-0.302960526 12.7347973,11.9669408 10.9660755,28.4277961 L1.86979167,28.4277961 C0.859093468,28.4277961 0.0505349099,29.2356908 0.0505349099,30.2455592 L0.0505349099,33.2751645 C0.0505349099,34.2850329 0.859093468,35.0929276 1.86979167,35.0929276 L10.9660755,35.0929276 C12.8358671,52.4121711 28.4006194,64.9850329 45.7340935,63.1167763 C63.0675676,61.2485197 75.6507601,45.6965461 73.7809685,28.3773026 C72.1133164,12.7748355 59.1763795,0.757401316 43.4600225,0.252467105 Z" id="Shape"></path>
                </g>
                <path d="M352.329392,225.806579 C336.76464,225.301645 323.473958,236.814145 321.806306,252.265132 L313.013232,252.265132 C312.204673,252.265132 311.54772,252.921546 311.54772,253.729441 L311.54772,257.1125 C311.54772,257.920395 312.204673,258.576809 313.013232,258.576809 C313.013232,258.576809 313.013232,258.576809 313.013232,258.576809 L321.806306,258.576809 C323.575028,274.886184 338.179617,286.651151 354.502393,284.883882 C370.825169,283.116612 382.599803,268.524013 380.831081,252.214638 C379.264499,237.571546 367.085586,226.311513 352.329392,225.806579 Z" id="Shape" fill="#FFFFFF"></path>
                <ellipse id="Oval" fill="#795548" cx="351.318694" cy="255.446217" rx="20.8203829" ry="20.8032895"></ellipse>
                <path d="M362.08263,245.347533 C362.08263,245.347533 368.045749,254.587829 366.327562,261.757895 C366.277027,261.757895 373.09924,250.497862 362.08263,245.347533 Z" id="Shape" fill="#FFFFFF" opacity="0.2"></path>
                <ellipse id="Oval" fill="#FFFFFF" opacity="0.2" cx="364.609375" cy="266.807237" rx="1.92032658" ry="1.91875"></ellipse>
            </g>
        </g>
    </g>
</svg>