<?xml version="1.0" encoding="UTF-8"?>
<svg width="18px" height="28px" viewBox="0 0 18 28" version="1.1" xmlns="http://www.w3.org/2000/svg" xmlns:xlink="http://www.w3.org/1999/xlink">
    <!-- Generator: Sketch 49.1 (51147) - http://www.bohemiancoding.com/sketch -->
    <title>noun_design tools_808071 (1)</title>
    <desc>Created with Sketch.</desc>
    <defs></defs>
    <g id="desktop" stroke="none" stroke-width="1" fill="none" fill-rule="evenodd">
        <g id="Skills" transform="translate(-581.000000, -291.000000)" fill="#46FF96" fill-rule="nonzero">
            <g id="skill-card-copy" transform="translate(522.000000, 249.000000)">
                <g id="noun_design-tools_808071-(1)" transform="translate(59.000000, 42.000000)">
                    <path d="M9.88571429,0.342857143 L9.88571429,27.7714286 L17.3142857,27.7714286 L17.3142857,0.342857143 L9.88571429,0.342857143 Z M16.1714286,26.6285714 L11.0285714,26.6285714 L11.0285714,23.7714286 L13.3142857,23.7714286 L13.3142857,22.6285714 L11.0285714,22.6285714 L11.0285714,19.2 L12.7428571,19.2 L12.7428571,18.0571429 L11.0285714,18.0571429 L11.0285714,14.6285714 L13.3142857,14.6285714 L13.3142857,13.4857143 L11.0285714,13.4857143 L11.0285714,10.0571429 L12.7428571,10.0571429 L12.7428571,8.91428571 L11.0285714,8.91428571 L11.0285714,5.48571429 L13.3142857,5.48571429 L13.3142857,4.34285714 L11.0285714,4.34285714 L11.0285714,1.48571429 L16.1714286,1.48571429 L16.1714286,26.6285714 Z" id="Shape"></path>
                    <path d="M5.37142857,8.34285714 C6.74285714,6.45714286 5.14285714,4.34285714 5.08571429,4.28571429 C4.11428571,3.08571429 4.28571429,1.82857143 4.51428571,1.2 L4.51428571,1.14285714 L4.51428571,1.02857143 C4.51428571,0.742857143 4.34285714,0.457142857 4.11428571,0.342857143 C3.94285714,0.285714286 3.71428571,0.342857143 3.54285714,0.457142857 C0.285714286,2.4 5.55111512e-17,5.08571429 0.4,6.97142857 C0.571428571,7.71428571 0.971428571,8.34285714 1.54285714,8.8 C0.685714286,9.71428571 0.285714286,11.6571429 0.285714286,14.9142857 C0.285714286,17.4857143 0.571428571,20.5714286 0.971428571,23.0857143 C1.65714286,27.2571429 2.45714286,27.7714286 3.14285714,27.7714286 C3.82857143,27.7714286 4.62857143,27.2 5.31428571,23.0857143 C5.71428571,20.6285714 6,17.4857143 6,14.9142857 C6,11.7714286 5.6,9.82857143 4.8,8.91428571 C4.97142857,8.74285714 5.2,8.57142857 5.37142857,8.34285714 Z M3.2,2.05714286 C3.14285714,2.85714286 3.31428571,3.94285714 4.17142857,4.97142857 C4.22857143,5.02857143 5.31428571,6.45714286 4.45714286,7.65714286 C4.22857143,7.94285714 3.88571429,8.17142857 3.48571429,8.22857143 C3.37142857,8.22857143 3.25714286,8.22857143 3.14285714,8.22857143 C3.08571429,8.22857143 3.02857143,8.22857143 2.97142857,8.22857143 C2.85714286,8.22857143 2.74285714,8.17142857 2.62857143,8.11428571 L2.51428571,8.11428571 C2.05714286,7.88571429 1.65714286,7.37142857 1.54285714,6.8 C1.14285714,4.85714286 1.71428571,3.25714286 3.2,2.05714286 Z M3.08571429,26.5714286 C2.34285714,25.6571429 1.37142857,20.0571429 1.37142857,14.9142857 C1.37142857,13.8857143 1.42857143,13.0285714 1.48571429,12.3428571 L4.68571429,12.3428571 C4.74285714,13.0285714 4.8,13.8857143 4.8,14.9142857 C4.8,20.0571429 3.88571429,25.6571429 3.08571429,26.5714286 Z M4.51428571,11.2 L1.71428571,11.2 C2.05714286,9.71428571 2.57142857,9.37142857 2.91428571,9.31428571 C3.02857143,9.31428571 3.14285714,9.31428571 3.25714286,9.31428571 C3.31428571,9.31428571 3.37142857,9.31428571 3.42857143,9.31428571 C3.77142857,9.42857143 4.22857143,9.82857143 4.51428571,11.2 Z" id="Shape"></path>
                </g>
            </g>
        </g>
    </g>
</svg>