<?xml version="1.0" encoding="UTF-8"?>
<svg width="28px" height="28px" viewBox="0 0 28 28" version="1.1" xmlns="http://www.w3.org/2000/svg" xmlns:xlink="http://www.w3.org/1999/xlink">
    <!-- Generator: Sketch 49.1 (51147) - http://www.bohemiancoding.com/sketch -->
    <title>noun_edit_808227</title>
    <desc>Created with Sketch.</desc>
    <defs></defs>
    <g id="desktop" stroke="none" stroke-width="1" fill="none" fill-rule="evenodd">
        <g id="Skills" transform="translate(-106.000000, -461.000000)" fill="#46FF96" fill-rule="nonzero">
            <g id="skill-card-copy-2" transform="translate(51.000000, 419.000000)">
                <g id="noun_edit_808227" transform="translate(55.000000, 42.000000)">
                    <path d="M28,0 L0,0 L0,21.5833333 L6.41666667,21.5833333 L6.41666667,28 L21.5833333,28 L21.5833333,21.5833333 L28,21.5833333 L28,0 Z M26.8333333,1.16666667 L26.8333333,4.66666667 L1.16666667,4.66666667 L1.16666667,1.16666667 L26.8333333,1.16666667 Z M10.4416667,14.5833333 L17.6166667,14.5833333 L20.4166667,17.15 L20.4166667,18.0833333 C20.4166667,19.075 19.6583333,19.8333333 18.6666667,19.8333333 C17.675,19.8333333 16.9166667,19.075 16.9166667,18.0833333 L15.75,18.0833333 C15.75,19.075 14.9916667,19.8333333 14,19.8333333 C13.0083333,19.8333333 12.25,19.075 12.25,18.0833333 L11.0833333,18.0833333 C11.0833333,19.075 10.325,19.8333333 9.33333333,19.8333333 C8.34166667,19.8333333 7.58333333,19.075 7.58333333,18.0833333 L7.58333333,17.15 L10.4416667,14.5833333 Z M11.6666667,13.4166667 L14,11.3166667 L16.3333333,13.4166667 L11.6666667,13.4166667 Z M7.58333333,26.8333333 L7.58333333,20.4166667 C8.05,20.7666667 8.69166667,21 9.33333333,21 C10.2666667,21 11.1416667,20.5333333 11.6666667,19.8333333 C12.1916667,20.5333333 13.0666667,21 14,21 C14.9333333,21 15.8083333,20.5333333 16.3333333,19.8333333 C16.8583333,20.5333333 17.7333333,21 18.6666667,21 C19.3083333,21 19.95,20.7666667 20.4166667,20.4166667 L20.4166667,26.8333333 L7.58333333,26.8333333 Z M21.5833333,20.4166667 L21.5833333,16.6833333 L14,9.68333333 L6.41666667,16.6833333 L6.41666667,20.4166667 L1.16666667,20.4166667 L1.16666667,5.83333333 L26.8333333,5.83333333 L26.8333333,20.4166667 L21.5833333,20.4166667 Z" id="Shape"></path>
                    <rect id="Rectangle-path" x="22.1666667" y="2.33333333" width="1.16666667" height="1.16666667"></rect>
                    <rect id="Rectangle-path" x="24.5" y="2.33333333" width="1.16666667" height="1.16666667"></rect>
                    <rect id="Rectangle-path" x="19.8333333" y="2.33333333" width="1.16666667" height="1.16666667"></rect>
                    <rect id="Rectangle-path" x="2.91666667" y="2.33333333" width="14" height="1.16666667"></rect>
                    <rect id="Rectangle-path" x="13.4166667" y="7" width="1.16666667" height="1.75"></rect>
                    <rect id="Rectangle-path" transform="translate(9.697987, 9.657083) rotate(-45.000000) translate(-9.697987, -9.657083) " x="9.11465893" y="8.78209172" width="1.16665548" height="1.74998322"></rect>
                    <rect id="Rectangle-path" transform="translate(18.348400, 9.615958) rotate(-45.000000) translate(-18.348400, -9.615958) " x="17.4734084" y="9.03263059" width="1.74998322" height="1.16665548"></rect>
                </g>
            </g>
        </g>
    </g>
</svg>