<?xml version="1.0" encoding="UTF-8"?>
<svg width="31px" height="28px" viewBox="0 0 31 28" version="1.1" xmlns="http://www.w3.org/2000/svg" xmlns:xlink="http://www.w3.org/1999/xlink">
    <!-- Generator: Sketch 49.1 (51147) - http://www.bohemiancoding.com/sketch -->
    <title>noun_coding_808201</title>
    <desc>Created with Sketch.</desc>
    <defs></defs>
    <g id="desktop" stroke="none" stroke-width="1" fill="none" fill-rule="evenodd">
        <g id="Skills" transform="translate(-575.000000, -461.000000)" fill="#46FF96" fill-rule="nonzero">
            <g id="skill-card-copy-3" transform="translate(522.000000, 419.000000)">
                <g id="noun_coding_808201" transform="translate(53.000000, 42.000000)">
                    <path d="M30.5454545,23.5454545 L30.5454545,0 L0,0 L0,23.5454545 L9.54545455,23.5454545 L9.54545455,26.7272727 L7,26.7272727 L7,28 L23.5454545,28 L23.5454545,26.7272727 L21,26.7272727 L21,23.5454545 L30.5454545,23.5454545 Z M29.2727273,1.27272727 L29.2727273,18.4545455 L1.27272727,18.4545455 L1.27272727,1.27272727 L29.2727273,1.27272727 Z M1.27272727,19.7272727 L29.2727273,19.7272727 L29.2727273,22.2727273 L1.27272727,22.2727273 L1.27272727,19.7272727 Z M19.7272727,26.7272727 L10.8181818,26.7272727 L10.8181818,23.5454545 L19.7272727,23.5454545 L19.7272727,26.7272727 Z" id="Shape"></path>
                    <rect id="Rectangle-path" x="19.0909091" y="2.54545455" width="8.27272727" height="1.27272727"></rect>
                    <rect id="Rectangle-path" x="14.6363636" y="2.54545455" width="3.18181818" height="1.27272727"></rect>
                    <rect id="Rectangle-path" x="12.0909091" y="2.54545455" width="1.27272727" height="1.27272727"></rect>
                    <rect id="Rectangle-path" x="9.54545455" y="2.54545455" width="1.27272727" height="1.27272727"></rect>
                    <rect id="Rectangle-path" x="19.7272727" y="12.0909091" width="7.63636364" height="1.27272727"></rect>
                    <rect id="Rectangle-path" x="17.1818182" y="12.0909091" width="1.27272727" height="1.27272727"></rect>
                    <rect id="Rectangle-path" x="14.6363636" y="12.0909091" width="1.27272727" height="1.27272727"></rect>
                    <rect id="Rectangle-path" x="21" y="8.90909091" width="6.36363636" height="1.27272727"></rect>
                    <rect id="Rectangle-path" x="12.0909091" y="8.90909091" width="7.63636364" height="1.27272727"></rect>
                    <rect id="Rectangle-path" x="14" y="5.72727273" width="2.54545455" height="1.27272727"></rect>
                    <rect id="Rectangle-path" x="17.8181818" y="5.72727273" width="9.54545455" height="1.27272727"></rect>
                    <rect id="Rectangle-path" x="3.18181818" y="5.72727273" width="9.54545455" height="1.27272727"></rect>
                    <rect id="Rectangle-path" x="15.2727273" y="15.2727273" width="12.0909091" height="1.27272727"></rect>
                    <polygon id="Shape" points="10.0545455 12.2818182 11.8363636 14 10.0545455 15.7818182 10.9454545 16.7363636 13.6818182 14 10.9454545 11.3272727"></polygon>
                    <polygon id="Shape" points="5.85454545 15.7818182 4.13636364 14 5.85454545 12.2818182 4.96363636 11.3272727 2.29090909 14 4.96363636 16.7363636"></polygon>
                    <rect id="Rectangle-path" transform="translate(7.965809, 13.986420) rotate(-68.191143) translate(-7.965809, -13.986420) " x="4.52955059" y="13.3500758" width="6.872517" height="1.27268833"></rect>
                </g>
            </g>
        </g>
    </g>
</svg>