<?xml version="1.0" encoding="UTF-8"?>
<svg width="32px" height="32px" viewBox="0 0 32 32" version="1.1" xmlns="http://www.w3.org/2000/svg" xmlns:xlink="http://www.w3.org/1999/xlink">
    <!-- Generator: Sketch 49.1 (51147) - http://www.bohemiancoding.com/sketch -->
    <title>Linkedin</title>
    <desc>Created with Sketch.</desc>
    <defs></defs>
    <g id="Symbols" stroke="none" stroke-width="1" fill="none" fill-rule="evenodd">
        <g id="Header" transform="translate(-890.000000, 0.000000)" fill="#46FF96">
            <g id="social-links">
                <g transform="translate(842.000000, 0.000000)">
                    <path d="M64.0021072,-1.13686838e-13 C55.1644936,-1.13686838e-13 48,7.16449361 48,16.0021072 C48,24.8355064 55.1644936,32 64.0021072,32 C72.8355064,32 80,24.8355064 80,16.0021072 C80,7.16449361 72.8355064,-1.13686838e-13 64.0021072,-1.13686838e-13 L64.0021072,-1.13686838e-13 Z M57.0356908,13.4313183 L59.9857764,13.4313183 L59.9857764,23.1244567 L57.0356908,23.1244567 L57.0356908,13.4313183 Z M58.3379428,12.5884367 L58.3168708,12.5884367 C57.2169103,12.5884367 56.5088898,11.7497695 56.5088898,10.8183854 C56.5088898,9.87014355 57.2379824,9.09890689 58.3590149,9.09890689 C59.475833,9.09890689 60.1627815,9.89543 60.188068,10.8436718 C60.188068,11.775056 59.475833,12.5884367 58.3379428,12.5884367 L58.3379428,12.5884367 Z M72.2075596,23.1244567 L68.4145924,23.1244567 L68.4145924,18.2146714 C68.4145924,16.9124193 67.9805084,16.0273937 66.7962597,16.0273937 C65.8943764,16.0273937 65.3717898,16.6258396 65.135783,17.2032135 C65.0472804,17.4097195 65.043066,17.6962992 65.043066,17.9870934 L65.043066,23.1244567 L61.7811142,23.1244567 C61.7811142,23.1244567 61.8232583,14.2741999 61.7811142,13.4313183 L65.043066,13.4313183 L65.043066,15.0875807 C65.4645068,14.430133 66.4759647,13.49032 68.2123008,13.49032 C70.3658633,13.49032 72.2075596,14.8684315 72.2075596,17.8438035 L72.2075596,23.1244567 L72.2075596,23.1244567 Z" id="Linkedin"></path>
                </g>
            </g>
        </g>
    </g>
</svg>