<?xml version="1.0" encoding="UTF-8"?>
<svg width="32px" height="32px" viewBox="0 0 32 32" version="1.1" xmlns="http://www.w3.org/2000/svg" xmlns:xlink="http://www.w3.org/1999/xlink">
    <!-- Generator: Sketch 49.1 (51147) - http://www.bohemiancoding.com/sketch -->
    <title>Linkedin</title>
    <desc>Created with Sketch.</desc>
    <defs></defs>
    <g id="mobile" stroke="none" stroke-width="1" fill="none" fill-rule="evenodd">
        <g id="menu" transform="translate(-70.000000, -471.000000)" fill="#252525">
            <g id="social-links" transform="translate(16.000000, 471.000000)">
                <path d="M70.0021072,-1.13686838e-13 C61.1644936,-1.13686838e-13 54,7.16449361 54,16.0021072 C54,24.8355064 61.1644936,32 70.0021072,32 C78.8355064,32 86,24.8355064 86,16.0021072 C86,7.16449361 78.8355064,-1.13686838e-13 70.0021072,-1.13686838e-13 L70.0021072,-1.13686838e-13 Z M63.0356908,13.4313183 L65.9857764,13.4313183 L65.9857764,23.1244567 L63.0356908,23.1244567 L63.0356908,13.4313183 Z M64.3379428,12.5884367 L64.3168708,12.5884367 C63.2169103,12.5884367 62.5088898,11.7497695 62.5088898,10.8183854 C62.5088898,9.87014355 63.2379824,9.09890689 64.3590149,9.09890689 C65.475833,9.09890689 66.1627815,9.89543 66.188068,10.8436718 C66.188068,11.775056 65.475833,12.5884367 64.3379428,12.5884367 L64.3379428,12.5884367 Z M78.2075596,23.1244567 L74.4145924,23.1244567 L74.4145924,18.2146714 C74.4145924,16.9124193 73.9805084,16.0273937 72.7962597,16.0273937 C71.8943764,16.0273937 71.3717898,16.6258396 71.135783,17.2032135 C71.0472804,17.4097195 71.043066,17.6962992 71.043066,17.9870934 L71.043066,23.1244567 L67.7811142,23.1244567 C67.7811142,23.1244567 67.8232583,14.2741999 67.7811142,13.4313183 L71.043066,13.4313183 L71.043066,15.0875807 C71.4645068,14.430133 72.4759647,13.49032 74.2123008,13.49032 C76.3658633,13.49032 78.2075596,14.8684315 78.2075596,17.8438035 L78.2075596,23.1244567 L78.2075596,23.1244567 Z" id="Linkedin"></path>
            </g>
        </g>
    </g>
</svg>