<?xml version="1.0" encoding="UTF-8"?>
<svg width="26px" height="28px" viewBox="0 0 26 28" version="1.1" xmlns="http://www.w3.org/2000/svg" xmlns:xlink="http://www.w3.org/1999/xlink">
    <!-- Generator: Sketch 49.1 (51147) - http://www.bohemiancoding.com/sketch -->
    <title>noun_Brain_808164</title>
    <desc>Created with Sketch.</desc>
    <defs></defs>
    <g id="desktop" stroke="none" stroke-width="1" fill="none" fill-rule="evenodd">
        <g id="Skills" transform="translate(-107.000000, -291.000000)" fill="#46FF96" fill-rule="nonzero">
            <g id="skill-card" transform="translate(51.000000, 249.000000)">
                <g id="noun_Brain_808164" transform="translate(56.000000, 42.000000)">
                    <path d="M17.9428571,27.6571429 L16.8,27.6571429 L16.8,21.3714286 L21.3714286,21.3714286 L21.3714286,16.2285714 L23.8285714,16.2285714 L21.0857143,11.2571429 L21.0857143,11.0857143 C21.0857143,5.71428571 16.6857143,1.37142857 11.2571429,1.37142857 C5.82857143,1.37142857 1.37142857,5.71428571 1.37142857,11.0857143 C1.37142857,11.2 1.08571429,14.5714286 3.42857143,17.9428571 C4.62857143,19.6571429 5.42857143,21.3714286 5.82857143,23.0285714 C6.11428571,24.1142857 6.28571429,26 6.28571429,27.6 L5.14285714,27.6 C5.14285714,26.0571429 4.97142857,24.2285714 4.68571429,23.3142857 C4.28571429,21.7714286 3.54285714,20.1714286 2.4,18.5714286 C-0.228571429,14.8571429 0.114285714,11.1428571 0.114285714,10.9714286 C0.228571429,5.08571429 5.2,0.228571429 11.2571429,0.228571429 C17.2571429,0.228571429 22.1714286,5.02857143 22.2285714,10.9142857 L25.7714286,17.3714286 L22.5142857,17.3714286 L22.5142857,22.5142857 L17.9428571,22.5142857 L17.9428571,27.6571429 Z" id="Shape"></path>
                    <g id="Group" transform="translate(2.857143, 2.857143)">
                        <path d="M9.65714286,16.1714286 L6.74285714,16.1714286 L6.4,14.2857143 C6,14.1714286 5.54285714,14 5.08571429,13.7714286 L3.6,14.8571429 L1.54285714,12.8 L2.62857143,11.2571429 C2.45714286,10.9142857 2.28571429,10.4571429 2.11428571,9.94285714 L0.228571429,9.65714286 L0.228571429,6.74285714 L2.11428571,6.4 C2.22857143,6 2.4,5.54285714 2.62857143,5.08571429 L1.54285714,3.54285714 L3.6,1.48571429 L5.25714286,2.57142857 C5.6,2.34285714 6.05714286,2.17142857 6.57142857,2.05714286 L6.85714286,0.228571429 L9.77142857,0.228571429 L10.0571429,2.11428571 C10.4571429,2.22857143 10.9142857,2.4 11.3714286,2.62857143 L12.9142857,1.54285714 L14.9714286,3.65714286 L13.8285714,5.14285714 C14.0571429,5.48571429 14.1714286,5.94285714 14.3428571,6.45714286 L16.2285714,6.74285714 L16.2285714,9.65714286 L14.3428571,10 C14.2285714,10.4 14.0571429,10.8571429 13.7714286,11.3142857 L14.7428571,12.8 L12.7428571,14.8571429 L11.2,13.7714286 C10.8571429,13.9428571 10.4,14.1142857 9.88571429,14.2857143 L9.65714286,16.1714286 Z M7.71428571,15.0285714 L8.68571429,15.0285714 L8.97142857,13.3714286 L9.31428571,13.2571429 C10,13.0857143 10.5714286,12.8571429 10.9714286,12.5714286 L11.3142857,12.3428571 L12.6857143,13.3142857 L13.3714286,12.6285714 L12.5142857,11.3714286 L12.6857143,11.0857143 C13.0285714,10.5142857 13.2571429,9.94285714 13.3714286,9.42857143 L13.4285714,9.02857143 L15.1428571,8.68571429 L15.1428571,7.71428571 L13.4857143,7.42857143 L13.3714286,7.08571429 C13.2,6.4 12.9714286,5.82857143 12.6857143,5.42857143 L12.4571429,5.08571429 L13.4285714,3.71428571 L12.7428571,2.97142857 L11.4285714,4 L11.0857143,3.82857143 C10.5142857,3.48571429 9.94285714,3.25714286 9.42857143,3.14285714 L9.02857143,3.08571429 L8.74285714,1.37142857 L7.77142857,1.37142857 L7.48571429,3.02857143 L7.14285714,3.14285714 C6.45714286,3.31428571 5.88571429,3.54285714 5.48571429,3.82857143 L5.2,4 L3.71428571,3.02857143 L3.02857143,3.71428571 L4,5.02857143 L3.82857143,5.37142857 C3.48571429,5.94285714 3.25714286,6.51428571 3.14285714,7.02857143 L3.08571429,7.42857143 L1.37142857,7.77142857 L1.37142857,8.74285714 L3.02857143,9.02857143 L3.14285714,9.37142857 C3.31428571,10.0571429 3.54285714,10.6285714 3.82857143,11.0285714 L4.05714286,11.3714286 L3.08571429,12.7428571 L3.77142857,13.4285714 L5.08571429,12.4571429 L5.42857143,12.6285714 C6,12.9714286 6.57142857,13.2 7.08571429,13.3142857 L7.48571429,13.3714286 L7.71428571,15.0285714 Z" id="Shape"></path>
                        <path d="M8.22857143,11.7142857 C6.28571429,11.7142857 4.74285714,10.1714286 4.74285714,8.22857143 C4.74285714,6.28571429 6.28571429,4.74285714 8.22857143,4.74285714 C10.1714286,4.74285714 11.7142857,6.28571429 11.7142857,8.22857143 C11.7142857,10.1714286 10.1714286,11.7142857 8.22857143,11.7142857 Z M8.22857143,5.88571429 C6.91428571,5.88571429 5.88571429,6.91428571 5.88571429,8.22857143 C5.88571429,9.54285714 6.91428571,10.5714286 8.22857143,10.5714286 C9.54285714,10.5714286 10.5714286,9.54285714 10.5714286,8.22857143 C10.5714286,6.91428571 9.54285714,5.88571429 8.22857143,5.88571429 Z" id="Shape"></path>
                    </g>
                </g>
            </g>
        </g>
    </g>
</svg>