<?xml version="1.0" encoding="UTF-8"?>
<svg width="32px" height="32px" viewBox="0 0 32 32" version="1.1" xmlns="http://www.w3.org/2000/svg" xmlns:xlink="http://www.w3.org/1999/xlink">
    <!-- Generator: Sketch 49.1 (51147) - http://www.bohemiancoding.com/sketch -->
    <title>Twitter</title>
    <desc>Created with Sketch.</desc>
    <defs></defs>
    <g id="mobile" stroke="none" stroke-width="1" fill="none" fill-rule="evenodd">
        <g id="menu" transform="translate(-16.000000, -471.000000)" fill="#252525">
            <g id="social-links" transform="translate(16.000000, 471.000000)">
                <path d="M16.0021072,-1.13686838e-13 C7.16449361,-1.13686838e-13 0,7.16449361 0,16.0021072 C0,24.8355064 7.16449361,32 16.0021072,32 C24.8355064,32 32,24.8355064 32,16.0021072 C32,7.16449361 24.8355064,-1.13686838e-13 16.0021072,-1.13686838e-13 L16.0021072,-1.13686838e-13 Z M22.083498,12.6095088 C22.0877124,12.7527986 22.0919268,12.8960885 22.0919268,13.0393784 C22.0919268,17.4265771 18.8341894,22.4880811 12.8792309,22.4880811 C11.0501778,22.4880811 9.34755696,21.9359937 7.91465824,20.9961807 C8.16752272,21.0256815 8.42460161,21.0425392 8.6858949,21.0425392 C10.2030818,21.0425392 11.6022652,20.5115238 12.7106546,19.6222837 C11.2903991,19.5927828 10.0977216,18.6361122 9.6847096,17.3170025 C9.88278678,17.3549322 10.0850784,17.3760042 10.2915844,17.3760042 C10.5908073,17.3760042 10.9111023,17.3338601 11.1808244,17.2580008 C9.69735282,16.9545634 8.61424997,15.6101673 8.61424997,14.0002634 L8.61424997,13.9623337 C9.03569077,14.2067694 9.52034769,14.3584881 10.0513631,14.3753457 C9.17898064,13.7811142 8.59317793,12.7612274 8.59317793,11.6106941 C8.59317793,11.0038193 8.74489662,10.4306598 9.02304754,9.94178849 C10.6203082,11.9520611 13.0014487,13.2711708 15.6944554,13.4102463 C15.6354537,13.1658106 15.6080601,12.9129461 15.6080601,12.6558672 C15.6080601,10.8225998 17.0565521,9.33491374 18.8438825,9.33491374 C19.7752667,9.33491374 20.6173054,9.7352825 21.2073225,10.3800869 C21.9448439,10.2325826 22.6360068,9.95864612 23.2639536,9.57513499 C23.0237324,10.3505861 22.5091532,11.0038193 21.8390623,11.4126169 C22.4965099,11.3325431 23.1202423,11.155538 23.6976162,10.8900303 C23.2677466,11.5559068 22.7156592,12.1417095 22.083498,12.6095088 L22.083498,12.6095088 Z" id="Twitter"></path>
            </g>
        </g>
    </g>
</svg>